<svg width="787" height="280" viewBox="0 0 787 280" fill="none" xmlns="http://www.w3.org/2000/svg">
<path d="M469.888 61.4215C468.965 61.4215 468.242 61.1606 467.721 60.6387C467.199 60.1168 466.938 59.3742 466.938 58.4107V21.2573C466.938 20.2537 467.179 19.491 467.66 18.9691C468.182 18.4071 468.865 18.1261 469.708 18.1261C470.43 18.1261 470.972 18.2666 471.334 18.5476C471.735 18.7885 472.197 19.2501 472.718 19.9326L497.528 52.63H496.022V21.0767C496.022 20.1534 496.263 19.4308 496.745 18.9089C497.267 18.387 497.989 18.1261 498.913 18.1261C499.876 18.1261 500.599 18.387 501.08 18.9089C501.562 19.4308 501.803 20.1534 501.803 21.0767V58.4709C501.803 59.3942 501.562 60.1168 501.08 60.6387C500.639 61.1606 500.037 61.4215 499.274 61.4215C498.551 61.4215 497.949 61.281 497.467 61C497.026 60.719 496.544 60.2373 496.022 59.5548L471.334 26.9176H472.718V58.4107C472.718 59.3742 472.478 60.1168 471.996 60.6387C471.514 61.1606 470.812 61.4215 469.888 61.4215ZM521.503 61.5419C519.135 61.5419 517.148 61.1004 515.542 60.2172C513.976 59.334 512.792 58.0293 511.989 56.3031C511.227 54.5368 510.845 52.3289 510.845 49.6794V34.264C510.845 33.2203 511.106 32.4575 511.628 31.9758C512.15 31.4539 512.893 31.193 513.856 31.193C514.819 31.193 515.562 31.4539 516.084 31.9758C516.646 32.4575 516.927 33.2203 516.927 34.264V49.7396C516.927 52.1081 517.409 53.8543 518.372 54.9784C519.336 56.1024 520.861 56.6644 522.949 56.6644C525.237 56.6644 527.083 55.9017 528.489 54.3762C529.934 52.8106 530.656 50.7632 530.656 48.2342V34.264C530.656 33.2203 530.917 32.4575 531.439 31.9758C531.961 31.4539 532.724 31.193 533.727 31.193C534.691 31.193 535.433 31.4539 535.955 31.9758C536.477 32.4575 536.738 33.2203 536.738 34.264V58.3505C536.738 60.3978 535.755 61.4215 533.788 61.4215C532.864 61.4215 532.142 61.1606 531.62 60.6387C531.098 60.0767 530.837 59.3139 530.837 58.3505V53.2321L531.62 54.5569C530.817 56.8049 529.532 58.5311 527.766 59.7355C526 60.9398 523.912 61.5419 521.503 61.5419ZM548.38 61.4215C547.377 61.4215 546.614 61.1606 546.092 60.6387C545.57 60.0767 545.309 59.3139 545.309 58.3505V34.264C545.309 33.2604 545.57 32.4977 546.092 31.9758C546.614 31.4539 547.336 31.193 548.26 31.193C549.223 31.193 549.946 31.4539 550.427 31.9758C550.949 32.4977 551.21 33.2604 551.21 34.264V38.6598H550.608C551.25 36.2512 552.435 34.4246 554.161 33.1801C555.887 31.9357 558.095 31.2131 560.785 31.0123C561.507 30.9722 562.069 31.1528 562.471 31.5543C562.912 31.9557 563.153 32.578 563.193 33.421C563.274 34.264 563.093 34.9465 562.651 35.4683C562.21 35.9501 561.527 36.2311 560.604 36.3114L559.46 36.4318C556.851 36.6727 554.863 37.4956 553.498 38.9007C552.134 40.3057 551.451 42.2326 551.451 44.6814V58.3505C551.451 59.3139 551.19 60.0767 550.668 60.6387C550.187 61.1606 549.424 61.4215 548.38 61.4215ZM570.783 61.3613C569.82 61.3613 569.077 61.0803 568.555 60.5183C568.033 59.9161 567.773 59.0932 567.773 58.0494V34.5651C567.773 33.5214 568.033 32.7185 568.555 32.1565C569.077 31.5944 569.82 31.3134 570.783 31.3134C571.747 31.3134 572.489 31.5944 573.011 32.1565C573.573 32.7185 573.854 33.5214 573.854 34.5651V58.0494C573.854 59.0932 573.593 59.9161 573.072 60.5183C572.55 61.0803 571.787 61.3613 570.783 61.3613ZM570.783 25.0509C569.579 25.0509 568.636 24.7499 567.953 24.1477C567.311 23.5455 566.99 22.7025 566.99 21.6186C566.99 20.4946 567.311 19.6516 567.953 19.0895C568.636 18.4874 569.579 18.1863 570.783 18.1863C571.988 18.1863 572.911 18.4874 573.553 19.0895C574.236 19.6516 574.577 20.4946 574.577 21.6186C574.577 22.7025 574.236 23.5455 573.553 24.1477C572.911 24.7499 571.988 25.0509 570.783 25.0509ZM594.94 61.5419C592.531 61.5419 590.504 61.1204 588.858 60.2774C587.212 59.4344 585.988 58.1899 585.185 56.544C584.382 54.8981 583.981 52.8909 583.981 50.5224V36.3114H580.368C579.565 36.3114 578.942 36.1106 578.501 35.7092C578.059 35.2676 577.839 34.6855 577.839 33.9629C577.839 33.2002 578.059 32.6181 578.501 32.2167C578.942 31.8152 579.565 31.6145 580.368 31.6145H583.981V25.4122C583.981 24.4086 584.242 23.6459 584.763 23.124C585.325 22.6022 586.088 22.3412 587.052 22.3412C588.015 22.3412 588.758 22.6022 589.28 23.124C589.801 23.6459 590.062 24.4086 590.062 25.4122V31.6145H597.108C597.911 31.6145 598.533 31.8152 598.974 32.2167C599.416 32.6181 599.637 33.2002 599.637 33.9629C599.637 34.6855 599.416 35.2676 598.974 35.7092C598.533 36.1106 597.911 36.3114 597.108 36.3114H590.062V50.0407C590.062 52.1683 590.504 53.7741 591.387 54.8579C592.31 55.9418 593.796 56.4838 595.843 56.4838C596.566 56.4838 597.188 56.4236 597.71 56.3031C598.272 56.1426 598.734 56.0422 599.095 56.0021C599.536 56.0021 599.898 56.1626 600.179 56.4838C600.46 56.7648 600.6 57.3268 600.6 58.1698C600.6 58.772 600.48 59.334 600.239 59.8559C600.038 60.3778 599.657 60.719 599.095 60.8796C598.613 61.0401 597.951 61.1806 597.108 61.3011C596.305 61.4617 595.582 61.5419 594.94 61.5419ZM616.88 61.5419C613.909 61.5419 611.34 60.9197 609.172 59.6752C607.044 58.4308 605.378 56.6644 604.174 54.3762C602.97 52.088 602.368 49.3983 602.368 46.3073C602.368 43.9387 602.709 41.8312 603.391 39.9846C604.074 38.1379 605.037 36.5522 606.282 35.2275C607.566 33.8626 609.092 32.8389 610.858 32.1565C612.665 31.4339 614.672 31.0726 616.88 31.0726C619.81 31.0726 622.339 31.6948 624.467 32.9393C626.635 34.1837 628.321 35.9501 629.525 38.2383C630.729 40.4864 631.332 43.176 631.332 46.3073C631.332 48.6356 630.99 50.7432 630.308 52.63C629.626 54.5167 628.642 56.1225 627.357 57.4472C626.113 58.772 624.587 59.7957 622.781 60.5183C621.015 61.2007 619.048 61.5419 616.88 61.5419ZM616.88 56.8451C618.526 56.8451 619.971 56.4436 621.215 55.6408C622.46 54.8379 623.423 53.6536 624.106 52.088C624.828 50.5224 625.19 48.5955 625.19 46.3073C625.19 42.8549 624.427 40.2455 622.901 38.4791C621.376 36.7128 619.369 35.8296 616.88 35.8296C615.194 35.8296 613.728 36.2311 612.484 37.034C611.24 37.7967 610.256 38.9609 609.533 40.5265C608.851 42.0921 608.51 44.019 608.51 46.3073C608.51 49.7195 609.272 52.3289 610.798 54.1354C612.323 55.9418 614.351 56.8451 616.88 56.8451Z" fill="#1F1F1F"/>
<path d="M469.689 110.262C468.537 110.262 467.498 110.036 466.573 109.584C465.669 109.133 464.958 108.523 464.439 107.755C463.919 106.988 463.66 106.118 463.66 105.147C463.66 103.928 463.965 102.968 464.574 102.268C465.207 101.546 466.234 101.038 467.657 100.744C469.102 100.428 471.044 100.27 473.482 100.27H475.074V102.37H473.516C471.891 102.37 470.603 102.449 469.655 102.607C468.707 102.765 468.029 103.036 467.623 103.42C467.239 103.781 467.047 104.289 467.047 104.944C467.047 105.802 467.34 106.502 467.928 107.044C468.515 107.563 469.328 107.823 470.366 107.823C471.202 107.823 471.936 107.631 472.568 107.247C473.2 106.841 473.697 106.299 474.058 105.621C474.442 104.944 474.634 104.165 474.634 103.284V99.3891C474.634 98.102 474.363 97.1761 473.821 96.6116C473.279 96.0471 472.387 95.7648 471.145 95.7648C470.423 95.7648 469.666 95.8552 468.876 96.0358C468.108 96.2165 467.307 96.5213 466.471 96.9503C466.087 97.131 465.76 97.1874 465.489 97.1197C465.218 97.052 465.003 96.9052 464.845 96.6794C464.687 96.431 464.597 96.1713 464.574 95.9003C464.574 95.6068 464.642 95.3245 464.777 95.0535C464.936 94.7826 465.195 94.5793 465.557 94.4438C466.55 93.9696 467.532 93.6309 468.503 93.4277C469.474 93.2245 470.389 93.1228 471.247 93.1228C472.76 93.1228 474.002 93.3599 474.973 93.8342C475.966 94.3084 476.7 95.0309 477.174 96.0019C477.649 96.9729 477.886 98.2262 477.886 99.7617V108.467C477.886 109.009 477.75 109.438 477.479 109.754C477.208 110.047 476.813 110.194 476.294 110.194C475.797 110.194 475.402 110.047 475.108 109.754C474.815 109.438 474.668 109.009 474.668 108.467V106.265H474.973C474.792 107.101 474.453 107.823 473.957 108.433C473.482 109.02 472.884 109.472 472.161 109.788C471.439 110.104 470.615 110.262 469.689 110.262ZM491.472 110.262C490.027 110.262 488.774 109.901 487.712 109.178C486.651 108.433 485.94 107.451 485.578 106.231L485.951 105.621V108.467C485.951 109.009 485.804 109.438 485.511 109.754C485.217 110.047 484.811 110.194 484.291 110.194C483.749 110.194 483.332 110.047 483.038 109.754C482.744 109.438 482.598 109.009 482.598 108.467V87.5679C482.598 87.0034 482.744 86.5743 483.038 86.2808C483.332 85.9872 483.749 85.8405 484.291 85.8405C484.833 85.8405 485.251 85.9872 485.544 86.2808C485.861 86.5743 486.019 87.0034 486.019 87.5679V97.052H485.612C485.974 95.8552 486.685 94.9068 487.746 94.2067C488.807 93.4841 490.049 93.1228 491.472 93.1228C492.962 93.1228 494.249 93.4729 495.333 94.1729C496.417 94.8729 497.253 95.8552 497.84 97.1197C498.45 98.3842 498.754 99.9085 498.754 101.692C498.754 103.431 498.45 104.955 497.84 106.265C497.253 107.552 496.406 108.546 495.299 109.246C494.216 109.923 492.94 110.262 491.472 110.262ZM490.625 107.62C491.574 107.62 492.398 107.394 493.098 106.942C493.798 106.491 494.34 105.825 494.724 104.944C495.108 104.063 495.299 102.979 495.299 101.692C495.299 99.7504 494.87 98.2826 494.012 97.2891C493.177 96.2955 492.048 95.7987 490.625 95.7987C489.699 95.7987 488.875 96.0245 488.153 96.4761C487.453 96.9052 486.911 97.56 486.527 98.4407C486.143 99.3213 485.951 100.405 485.951 101.692C485.951 103.612 486.38 105.08 487.238 106.096C488.096 107.112 489.225 107.62 490.625 107.62ZM509.892 110.262C508.198 110.262 506.731 109.912 505.489 109.212C504.269 108.489 503.321 107.484 502.644 106.197C501.966 104.888 501.627 103.352 501.627 101.591C501.627 100.281 501.819 99.1068 502.203 98.0681C502.587 97.0068 503.129 96.1148 503.829 95.3922C504.552 94.6696 505.421 94.1164 506.437 93.7325C507.476 93.3261 508.628 93.1228 509.892 93.1228C510.682 93.1228 511.507 93.247 512.365 93.4954C513.245 93.7212 514.058 94.1051 514.803 94.6471C515.097 94.8277 515.278 95.0535 515.345 95.3245C515.436 95.5729 515.447 95.8326 515.379 96.1035C515.334 96.3745 515.21 96.6116 515.007 96.8149C514.826 96.9955 514.6 97.1084 514.329 97.1536C514.058 97.1761 513.765 97.0971 513.449 96.9165C512.907 96.5326 512.353 96.2616 511.789 96.1035C511.224 95.9229 510.682 95.8326 510.163 95.8326C509.35 95.8326 508.628 95.9681 507.995 96.239C507.386 96.4874 506.866 96.86 506.437 97.3568C506.008 97.831 505.681 98.4294 505.455 99.152C505.252 99.8746 505.15 100.699 505.15 101.625C505.15 103.476 505.579 104.933 506.437 105.994C507.318 107.033 508.56 107.552 510.163 107.552C510.682 107.552 511.224 107.473 511.789 107.315C512.353 107.157 512.907 106.886 513.449 106.502C513.765 106.321 514.058 106.254 514.329 106.299C514.6 106.344 514.815 106.468 514.973 106.671C515.153 106.852 515.266 107.078 515.312 107.349C515.379 107.597 515.368 107.857 515.278 108.128C515.187 108.399 514.995 108.625 514.702 108.805C513.979 109.325 513.189 109.697 512.331 109.923C511.495 110.149 510.682 110.262 509.892 110.262ZM524.39 110.262C522.945 110.262 521.669 109.923 520.563 109.246C519.479 108.546 518.632 107.552 518.022 106.265C517.413 104.955 517.108 103.431 517.108 101.692C517.108 99.9085 517.413 98.3842 518.022 97.1197C518.632 95.8552 519.479 94.8729 520.563 94.1729C521.669 93.4729 522.945 93.1228 524.39 93.1228C525.835 93.1228 527.077 93.4841 528.116 94.2067C529.177 94.9068 529.889 95.8552 530.25 97.052H529.877V87.5679C529.877 87.0034 530.024 86.5743 530.318 86.2808C530.611 85.9872 531.029 85.8405 531.571 85.8405C532.113 85.8405 532.531 85.9872 532.824 86.2808C533.14 86.5743 533.298 87.0034 533.298 87.5679V108.467C533.298 109.009 533.152 109.438 532.858 109.754C532.565 110.047 532.147 110.194 531.605 110.194C531.063 110.194 530.645 110.047 530.352 109.754C530.058 109.438 529.911 109.009 529.911 108.467V105.486L530.284 106.231C529.923 107.451 529.211 108.433 528.15 109.178C527.111 109.901 525.858 110.262 524.39 110.262ZM525.271 107.62C526.197 107.62 527.01 107.394 527.71 106.942C528.41 106.491 528.952 105.825 529.335 104.944C529.742 104.063 529.945 102.979 529.945 101.692C529.945 99.7504 529.516 98.2826 528.658 97.2891C527.8 96.2955 526.671 95.7987 525.271 95.7987C524.322 95.7987 523.498 96.0245 522.798 96.4761C522.098 96.9052 521.545 97.56 521.138 98.4407C520.755 99.3213 520.563 100.405 520.563 101.692C520.563 103.612 520.992 105.08 521.85 106.096C522.708 107.112 523.848 107.62 525.271 107.62ZM545.859 110.262C544.052 110.262 542.494 109.923 541.184 109.246C539.897 108.546 538.892 107.563 538.17 106.299C537.47 105.012 537.12 103.488 537.12 101.726C537.12 100.01 537.47 98.5084 538.17 97.2213C538.87 95.9342 539.83 94.9293 541.049 94.2067C542.268 93.4841 543.657 93.1228 545.215 93.1228C546.367 93.1228 547.394 93.3148 548.297 93.6987C549.201 94.06 549.968 94.6019 550.601 95.3245C551.256 96.0245 551.741 96.8826 552.057 97.8987C552.396 98.9149 552.565 100.055 552.565 101.32C552.565 101.704 552.452 101.997 552.227 102.2C552.001 102.381 551.662 102.471 551.21 102.471H539.83V100.371H550.262L549.686 100.846C549.686 99.7165 549.517 98.7568 549.178 97.9665C548.862 97.1761 548.376 96.5777 547.722 96.1713C547.089 95.7423 546.299 95.5277 545.351 95.5277C544.289 95.5277 543.386 95.7761 542.641 96.2729C541.918 96.7697 541.365 97.4584 540.981 98.3391C540.597 99.2197 540.405 100.247 540.405 101.421V101.625C540.405 103.612 540.868 105.113 541.794 106.13C542.742 107.123 544.109 107.62 545.893 107.62C546.57 107.62 547.281 107.53 548.026 107.349C548.794 107.168 549.517 106.863 550.194 106.434C550.578 106.209 550.917 106.107 551.21 106.13C551.527 106.152 551.775 106.254 551.956 106.434C552.159 106.615 552.283 106.841 552.328 107.112C552.373 107.383 552.328 107.665 552.193 107.959C552.057 108.23 551.82 108.478 551.481 108.704C550.714 109.223 549.822 109.618 548.805 109.889C547.789 110.138 546.807 110.262 545.859 110.262ZM558.971 110.194C558.43 110.194 558 110.047 557.684 109.754C557.391 109.438 557.244 109.009 557.244 108.467V96.0697H555.347C554.918 96.0697 554.579 95.9568 554.331 95.731C554.083 95.4826 553.958 95.1551 553.958 94.7487C553.958 94.3196 554.083 93.9922 554.331 93.7664C554.579 93.5406 554.918 93.4277 555.347 93.4277H558.226L557.244 94.3422V93.1228C557.244 90.8873 557.797 89.205 558.904 88.076C560.01 86.9243 561.625 86.2469 563.747 86.0437L564.797 85.9759C565.181 85.9308 565.486 85.9872 565.712 86.1453C565.938 86.3034 566.085 86.5066 566.152 86.755C566.22 87.0034 566.22 87.2631 566.152 87.534C566.107 87.7824 565.994 88.0082 565.814 88.2115C565.633 88.4147 565.407 88.5276 565.136 88.5502L564.493 88.5841C563.16 88.697 562.189 89.0808 561.58 89.7357C560.97 90.368 560.665 91.3389 560.665 92.6486V93.9696L560.191 93.4277H563.951C564.425 93.4277 564.775 93.5406 565.001 93.7664C565.249 93.9922 565.373 94.3196 565.373 94.7487C565.373 95.1551 565.249 95.4826 565.001 95.731C564.775 95.9568 564.425 96.0697 563.951 96.0697H560.665V108.467C560.665 109.618 560.101 110.194 558.971 110.194ZM575.027 116.359C573.807 116.359 572.622 116.235 571.47 115.986C570.341 115.738 569.314 115.331 568.388 114.767C568.049 114.586 567.824 114.36 567.711 114.089C567.598 113.841 567.564 113.581 567.609 113.31C567.677 113.039 567.801 112.802 567.982 112.599C568.162 112.396 568.377 112.26 568.625 112.193C568.896 112.125 569.178 112.17 569.472 112.328C570.465 112.87 571.403 113.231 572.283 113.412C573.187 113.615 574.022 113.717 574.79 113.717C576.37 113.717 577.556 113.31 578.346 112.497C579.137 111.707 579.532 110.533 579.532 108.975V105.52H579.837C579.498 106.762 578.787 107.744 577.703 108.467C576.619 109.189 575.366 109.551 573.943 109.551C572.453 109.551 571.154 109.212 570.048 108.534C568.941 107.834 568.083 106.875 567.474 105.655C566.864 104.413 566.559 102.968 566.559 101.32C566.559 100.078 566.728 98.9601 567.067 97.9665C567.428 96.9729 567.925 96.1148 568.557 95.3922C569.212 94.6696 569.991 94.1164 570.895 93.7325C571.82 93.3261 572.837 93.1228 573.943 93.1228C575.388 93.1228 576.641 93.4841 577.703 94.2067C578.787 94.9293 579.487 95.9116 579.803 97.1536L579.464 97.7294V94.918C579.464 94.3535 579.611 93.9245 579.904 93.6309C580.221 93.3374 580.638 93.1906 581.158 93.1906C581.7 93.1906 582.117 93.3374 582.411 93.6309C582.704 93.9245 582.851 94.3535 582.851 94.918V108.568C582.851 111.143 582.185 113.085 580.853 114.394C579.521 115.704 577.579 116.359 575.027 116.359ZM574.756 106.875C575.749 106.875 576.596 106.649 577.296 106.197C577.996 105.746 578.538 105.102 578.922 104.267C579.306 103.431 579.498 102.449 579.498 101.32C579.498 99.6262 579.069 98.2826 578.211 97.2891C577.375 96.2955 576.224 95.7987 574.756 95.7987C573.785 95.7987 572.949 96.0245 572.249 96.4761C571.549 96.9278 570.996 97.5713 570.59 98.4068C570.206 99.2197 570.014 100.191 570.014 101.32C570.014 103.036 570.443 104.391 571.301 105.384C572.159 106.378 573.311 106.875 574.756 106.875ZM589.346 110.194C588.804 110.194 588.386 110.047 588.093 109.754C587.799 109.438 587.653 109.009 587.653 108.467V87.5679C587.653 87.0034 587.799 86.5743 588.093 86.2808C588.386 85.9872 588.804 85.8405 589.346 85.8405C589.888 85.8405 590.306 85.9872 590.599 86.2808C590.915 86.5743 591.074 87.0034 591.074 87.5679V96.9503H590.599C591.096 95.6858 591.875 94.7374 592.936 94.1051C593.998 93.4503 595.217 93.1228 596.595 93.1228C597.904 93.1228 598.988 93.3712 599.846 93.868C600.727 94.3422 601.382 95.0761 601.811 96.0697C602.24 97.0407 602.454 98.2713 602.454 99.7617V108.467C602.454 109.009 602.308 109.438 602.014 109.754C601.721 110.047 601.303 110.194 600.761 110.194C600.196 110.194 599.767 110.047 599.474 109.754C599.18 109.438 599.033 109.009 599.033 108.467V99.9649C599.033 98.5423 598.751 97.5036 598.187 96.8487C597.645 96.1939 596.787 95.8664 595.612 95.8664C594.235 95.8664 593.128 96.2955 592.293 97.1536C591.48 98.0116 591.074 99.1633 591.074 100.608V108.467C591.074 109.618 590.498 110.194 589.346 110.194ZM608.862 110.16C608.32 110.16 607.902 110.002 607.609 109.686C607.315 109.347 607.168 108.884 607.168 108.297V95.0874C607.168 94.5003 607.315 94.0487 607.609 93.7325C607.902 93.4164 608.32 93.2583 608.862 93.2583C609.404 93.2583 609.822 93.4164 610.115 93.7325C610.431 94.0487 610.589 94.5003 610.589 95.0874V108.297C610.589 108.884 610.443 109.347 610.149 109.686C609.856 110.002 609.426 110.16 608.862 110.16ZM608.862 89.7357C608.185 89.7357 607.654 89.5663 607.27 89.2276C606.909 88.8889 606.728 88.4147 606.728 87.805C606.728 87.1727 606.909 86.6985 607.27 86.3824C607.654 86.0437 608.185 85.8743 608.862 85.8743C609.539 85.8743 610.059 86.0437 610.42 86.3824C610.804 86.6985 610.996 87.1727 610.996 87.805C610.996 88.4147 610.804 88.8889 610.42 89.2276C610.059 89.5663 609.539 89.7357 608.862 89.7357ZM612.763 116.393C612.356 116.415 612.029 116.347 611.78 116.189C611.509 116.031 611.329 115.828 611.239 115.58C611.126 115.331 611.092 115.072 611.137 114.801C611.159 114.552 611.272 114.326 611.476 114.123C611.656 113.943 611.905 113.841 612.221 113.818C613.35 113.751 614.174 113.446 614.693 112.904C615.235 112.362 615.506 111.504 615.506 110.33V94.918C615.506 94.3535 615.653 93.9245 615.947 93.6309C616.263 93.3374 616.692 93.1906 617.234 93.1906C617.798 93.1906 618.216 93.3374 618.487 93.6309C618.781 93.9245 618.927 94.3535 618.927 94.918V110.059C618.927 111.459 618.69 112.61 618.216 113.514C617.764 114.439 617.087 115.128 616.184 115.58C615.281 116.031 614.14 116.302 612.763 116.393ZM617.234 89.7357C616.556 89.7357 616.026 89.5663 615.642 89.2276C615.281 88.8889 615.1 88.4147 615.1 87.805C615.1 87.1727 615.281 86.6985 615.642 86.3824C616.026 86.0437 616.556 85.8743 617.234 85.8743C617.911 85.8743 618.431 86.0437 618.792 86.3824C619.153 86.6985 619.334 87.1727 619.334 87.805C619.334 88.4147 619.153 88.8889 618.792 89.2276C618.431 89.5663 617.911 89.7357 617.234 89.7357ZM625.434 110.194C624.892 110.194 624.474 110.047 624.181 109.754C623.887 109.438 623.74 109.009 623.74 108.467V87.5679C623.74 87.0034 623.887 86.5743 624.181 86.2808C624.474 85.9872 624.892 85.8405 625.434 85.8405C625.976 85.8405 626.394 85.9872 626.687 86.2808C627.003 86.5743 627.161 87.0034 627.161 87.5679V100.642H627.229L633.563 94.3422C633.924 93.9809 634.252 93.6987 634.545 93.4954C634.839 93.2922 635.223 93.1906 635.697 93.1906C636.171 93.1906 636.532 93.3148 636.781 93.5632C637.029 93.8116 637.153 94.1164 637.153 94.4777C637.153 94.8164 636.984 95.1664 636.645 95.5277L629.939 102.167V100.575L637.255 107.857C637.616 108.218 637.786 108.58 637.763 108.941C637.741 109.302 637.594 109.607 637.323 109.855C637.052 110.081 636.713 110.194 636.307 110.194C635.787 110.194 635.37 110.093 635.053 109.889C634.76 109.686 634.41 109.381 634.003 108.975L627.229 102.404H627.161V108.467C627.161 109.618 626.586 110.194 625.434 110.194ZM646.523 110.262C644.762 110.262 643.43 109.754 642.526 108.738C641.646 107.699 641.205 106.209 641.205 104.267V87.5679C641.205 87.0034 641.352 86.5743 641.646 86.2808C641.939 85.9872 642.357 85.8405 642.899 85.8405C643.441 85.8405 643.859 85.9872 644.152 86.2808C644.468 86.5743 644.626 87.0034 644.626 87.5679V104.063C644.626 105.192 644.852 106.039 645.304 106.604C645.778 107.146 646.455 107.417 647.336 107.417C647.539 107.417 647.72 107.417 647.878 107.417C648.036 107.394 648.194 107.371 648.352 107.349C648.623 107.326 648.815 107.405 648.928 107.586C649.041 107.744 649.097 108.083 649.097 108.602C649.097 109.076 648.996 109.449 648.793 109.72C648.589 109.968 648.262 110.126 647.81 110.194C647.607 110.217 647.393 110.228 647.167 110.228C646.941 110.251 646.726 110.262 646.523 110.262ZM653.32 110.194C652.778 110.194 652.36 110.047 652.067 109.754C651.773 109.438 651.626 109.009 651.626 108.467V94.918C651.626 94.3535 651.773 93.9245 652.067 93.6309C652.36 93.3374 652.767 93.1906 653.286 93.1906C653.828 93.1906 654.235 93.3374 654.506 93.6309C654.799 93.9245 654.946 94.3535 654.946 94.918V97.6955L654.573 96.9503C655.025 95.7535 655.725 94.8164 656.673 94.139C657.622 93.4616 658.762 93.1228 660.094 93.1228C661.472 93.1228 662.59 93.4503 663.448 94.1051C664.306 94.76 664.893 95.7648 665.209 97.1197H664.735C665.164 95.8777 665.898 94.9068 666.936 94.2067C667.975 93.4841 669.183 93.1228 670.561 93.1228C671.825 93.1228 672.864 93.3712 673.677 93.868C674.49 94.3422 675.099 95.0761 675.506 96.0697C675.912 97.0407 676.116 98.2713 676.116 99.7617V108.467C676.116 109.009 675.958 109.438 675.641 109.754C675.348 110.047 674.93 110.194 674.388 110.194C673.846 110.194 673.428 110.047 673.135 109.754C672.841 109.438 672.695 109.009 672.695 108.467V99.931C672.695 98.531 672.446 97.5036 671.949 96.8487C671.475 96.1939 670.685 95.8664 669.578 95.8664C668.336 95.8664 667.354 96.2955 666.632 97.1536C665.909 98.0116 665.548 99.1972 665.548 100.71V108.467C665.548 109.009 665.401 109.438 665.107 109.754C664.814 110.047 664.396 110.194 663.854 110.194C663.312 110.194 662.883 110.047 662.567 109.754C662.273 109.438 662.127 109.009 662.127 108.467V99.931C662.127 98.531 661.89 97.5036 661.415 96.8487C660.941 96.1939 660.151 95.8664 659.044 95.8664C657.802 95.8664 656.82 96.2955 656.097 97.1536C655.397 98.0116 655.047 99.1972 655.047 100.71V108.467C655.047 109.618 654.472 110.194 653.32 110.194ZM682.592 110.194C682.05 110.194 681.633 110.047 681.339 109.754C681.045 109.438 680.899 109.009 680.899 108.467V94.918C680.899 94.3535 681.045 93.9245 681.339 93.6309C681.633 93.3374 682.039 93.1906 682.558 93.1906C683.1 93.1906 683.507 93.3374 683.778 93.6309C684.071 93.9245 684.218 94.3535 684.218 94.918V97.56L683.845 96.9503C684.342 95.6858 685.121 94.7374 686.183 94.1051C687.244 93.4503 688.463 93.1228 689.841 93.1228C691.15 93.1228 692.234 93.3712 693.092 93.868C693.973 94.3422 694.628 95.0761 695.057 96.0697C695.486 97.0407 695.701 98.2713 695.701 99.7617V108.467C695.701 109.009 695.554 109.438 695.26 109.754C694.967 110.047 694.549 110.194 694.007 110.194C693.442 110.194 693.013 110.047 692.72 109.754C692.426 109.438 692.279 109.009 692.279 108.467V99.9649C692.279 98.5423 691.997 97.5036 691.433 96.8487C690.891 96.1939 690.033 95.8664 688.858 95.8664C687.481 95.8664 686.375 96.2955 685.539 97.1536C684.726 98.0116 684.32 99.1633 684.32 100.608V108.467C684.32 109.618 683.744 110.194 682.592 110.194ZM707.595 110.262C705.924 110.262 704.479 109.912 703.26 109.212C702.063 108.512 701.126 107.518 700.448 106.231C699.771 104.944 699.432 103.431 699.432 101.692C699.432 100.36 699.624 99.1746 700.008 98.1358C700.392 97.0971 700.934 96.2052 701.634 95.46C702.356 94.6922 703.215 94.1164 704.208 93.7325C705.224 93.3261 706.353 93.1228 707.595 93.1228C709.244 93.1228 710.666 93.4729 711.863 94.1729C713.082 94.8729 714.031 95.8664 714.708 97.1536C715.386 98.4181 715.724 99.931 715.724 101.692C715.724 103.002 715.533 104.188 715.149 105.249C714.765 106.31 714.212 107.213 713.489 107.959C712.789 108.704 711.931 109.28 710.915 109.686C709.921 110.07 708.815 110.262 707.595 110.262ZM707.595 107.62C708.521 107.62 709.334 107.394 710.034 106.942C710.734 106.491 711.276 105.825 711.66 104.944C712.066 104.063 712.27 102.979 712.27 101.692C712.27 99.7504 711.841 98.2826 710.982 97.2891C710.124 96.2955 708.995 95.7987 707.595 95.7987C706.647 95.7987 705.823 96.0245 705.123 96.4761C704.423 96.9052 703.869 97.56 703.463 98.4407C703.079 99.3213 702.887 100.405 702.887 101.692C702.887 103.612 703.316 105.08 704.174 106.096C705.032 107.112 706.173 107.62 707.595 107.62ZM721.26 116.291C720.718 116.291 720.3 116.144 720.007 115.851C719.713 115.557 719.567 115.128 719.567 114.564V94.918C719.567 94.3535 719.713 93.9245 720.007 93.6309C720.3 93.3374 720.707 93.1906 721.226 93.1906C721.768 93.1906 722.186 93.3374 722.479 93.6309C722.773 93.9245 722.92 94.3535 722.92 94.918V97.8649L722.547 97.1536C722.909 95.9342 723.62 94.9632 724.681 94.2406C725.742 93.4954 726.996 93.1228 728.441 93.1228C729.909 93.1228 731.184 93.4729 732.268 94.1729C733.375 94.8729 734.222 95.8552 734.809 97.1197C735.418 98.3842 735.723 99.9085 735.723 101.692C735.723 103.431 735.418 104.955 734.809 106.265C734.222 107.552 733.386 108.546 732.302 109.246C731.218 109.923 729.931 110.262 728.441 110.262C727.018 110.262 725.776 109.901 724.715 109.178C723.654 108.455 722.942 107.496 722.581 106.299H722.988V114.564C722.988 115.128 722.829 115.557 722.513 115.851C722.22 116.144 721.802 116.291 721.26 116.291ZM727.594 107.62C728.542 107.62 729.367 107.394 730.067 106.942C730.767 106.491 731.309 105.825 731.693 104.944C732.076 104.063 732.268 102.979 732.268 101.692C732.268 99.7504 731.839 98.2826 730.981 97.2891C730.146 96.2955 729.017 95.7987 727.594 95.7987C726.668 95.7987 725.844 96.0245 725.121 96.4761C724.421 96.9052 723.879 97.56 723.496 98.4407C723.112 99.3213 722.92 100.405 722.92 101.692C722.92 103.612 723.349 105.08 724.207 106.096C725.065 107.112 726.194 107.62 727.594 107.62ZM753.059 116.291C752.517 116.291 752.1 116.144 751.806 115.851C751.513 115.557 751.366 115.128 751.366 114.564V106.299H751.738C751.377 107.496 750.666 108.455 749.605 109.178C748.566 109.901 747.324 110.262 745.879 110.262C744.433 110.262 743.158 109.923 742.051 109.246C740.967 108.546 740.12 107.552 739.511 106.265C738.901 104.955 738.596 103.431 738.596 101.692C738.596 99.9085 738.901 98.3842 739.511 97.1197C740.12 95.8552 740.967 94.8729 742.051 94.1729C743.158 93.4729 744.433 93.1228 745.879 93.1228C747.346 93.1228 748.6 93.4954 749.638 94.2406C750.7 94.9632 751.411 95.9342 751.772 97.1536L751.4 97.8649V94.918C751.4 94.3535 751.546 93.9245 751.84 93.6309C752.134 93.3374 752.551 93.1906 753.093 93.1906C753.635 93.1906 754.053 93.3374 754.347 93.6309C754.64 93.9245 754.787 94.3535 754.787 94.918V114.564C754.787 115.128 754.629 115.557 754.313 115.851C754.019 116.144 753.601 116.291 753.059 116.291ZM746.759 107.62C747.685 107.62 748.498 107.394 749.198 106.942C749.898 106.491 750.44 105.825 750.824 104.944C751.23 104.063 751.434 102.979 751.434 101.692C751.434 99.7504 751.005 98.2826 750.146 97.2891C749.288 96.2955 748.159 95.7987 746.759 95.7987C745.811 95.7987 744.987 96.0245 744.287 96.4761C743.587 96.9052 743.033 97.56 742.627 98.4407C742.243 99.3213 742.051 100.405 742.051 101.692C742.051 103.612 742.48 105.08 743.338 106.096C744.196 107.112 745.337 107.62 746.759 107.62ZM761.318 110.194C760.753 110.194 760.324 110.047 760.031 109.754C759.737 109.438 759.591 109.009 759.591 108.467V94.918C759.591 94.3535 759.737 93.9245 760.031 93.6309C760.324 93.3374 760.731 93.1906 761.25 93.1906C761.792 93.1906 762.199 93.3374 762.47 93.6309C762.763 93.9245 762.91 94.3535 762.91 94.918V97.3907H762.571C762.933 96.0358 763.599 95.0084 764.57 94.3084C765.541 93.6083 766.783 93.2019 768.296 93.089C768.702 93.0664 769.018 93.168 769.244 93.3938C769.492 93.6196 769.628 93.9696 769.65 94.4438C769.696 94.918 769.594 95.3019 769.346 95.5955C769.097 95.8664 768.713 96.0245 768.194 96.0697L767.55 96.1374C766.083 96.2729 764.965 96.7358 764.197 97.5262C763.429 98.3165 763.045 99.4004 763.045 100.778V108.467C763.045 109.009 762.899 109.438 762.605 109.754C762.334 110.047 761.905 110.194 761.318 110.194ZM777.853 110.262C776.859 110.262 775.832 110.149 774.771 109.923C773.732 109.697 772.772 109.313 771.892 108.772C771.598 108.568 771.395 108.342 771.282 108.094C771.169 107.846 771.124 107.597 771.146 107.349C771.191 107.078 771.293 106.852 771.451 106.671C771.632 106.468 771.846 106.344 772.095 106.299C772.366 106.254 772.648 106.31 772.942 106.468C773.822 106.965 774.669 107.315 775.482 107.518C776.295 107.699 777.096 107.789 777.887 107.789C779.084 107.789 779.987 107.575 780.597 107.146C781.206 106.717 781.511 106.141 781.511 105.418C781.511 104.831 781.308 104.38 780.901 104.063C780.495 103.725 779.885 103.465 779.072 103.284L775.854 102.641C774.454 102.347 773.393 101.828 772.671 101.083C771.948 100.337 771.587 99.3891 771.587 98.2375C771.587 97.1987 771.869 96.2955 772.433 95.5277C772.998 94.76 773.788 94.1729 774.804 93.7664C775.821 93.3374 776.995 93.1228 778.327 93.1228C779.321 93.1228 780.258 93.247 781.138 93.4954C782.019 93.7438 782.832 94.1164 783.577 94.6132C783.871 94.7713 784.063 94.9858 784.153 95.2568C784.243 95.5051 784.255 95.7535 784.187 96.0019C784.142 96.2503 784.029 96.4761 783.848 96.6794C783.668 96.86 783.442 96.9729 783.171 97.0181C782.922 97.0407 782.64 96.9729 782.324 96.8149C781.647 96.3858 780.969 96.081 780.292 95.9003C779.637 95.7197 778.982 95.6293 778.327 95.6293C777.13 95.6293 776.227 95.8552 775.617 96.3068C775.03 96.7358 774.737 97.3229 774.737 98.0681C774.737 98.6326 774.917 99.0955 775.279 99.4568C775.64 99.8181 776.204 100.078 776.972 100.236L780.19 100.879C781.658 101.173 782.764 101.67 783.509 102.37C784.277 103.07 784.661 104.018 784.661 105.215C784.661 106.773 784.04 108.004 782.798 108.907C781.556 109.81 779.908 110.262 777.853 110.262ZM471.45 156.262C470.095 156.262 468.955 156.025 468.029 155.551C467.103 155.076 466.415 154.376 465.963 153.451C465.511 152.525 465.286 151.396 465.286 150.063V142.07H463.253C462.802 142.07 462.452 141.957 462.203 141.731C461.955 141.483 461.831 141.155 461.831 140.749C461.831 140.32 461.955 139.992 462.203 139.766C462.452 139.541 462.802 139.428 463.253 139.428H465.286V135.939C465.286 135.374 465.432 134.945 465.726 134.652C466.042 134.358 466.471 134.211 467.013 134.211C467.555 134.211 467.973 134.358 468.266 134.652C468.56 134.945 468.707 135.374 468.707 135.939V139.428H472.67C473.121 139.428 473.471 139.541 473.72 139.766C473.968 139.992 474.092 140.32 474.092 140.749C474.092 141.155 473.968 141.483 473.72 141.731C473.471 141.957 473.121 142.07 472.67 142.07H468.707V149.792C468.707 150.989 468.955 151.892 469.452 152.502C469.971 153.112 470.807 153.417 471.958 153.417C472.365 153.417 472.715 153.383 473.008 153.315C473.324 153.225 473.584 153.168 473.787 153.146C474.036 153.146 474.239 153.236 474.397 153.417C474.555 153.575 474.634 153.891 474.634 154.365C474.634 154.704 474.566 155.02 474.431 155.313C474.318 155.607 474.103 155.799 473.787 155.889C473.516 155.98 473.144 156.059 472.67 156.126C472.218 156.217 471.811 156.262 471.45 156.262ZM482.67 156.262C481.337 156.262 480.22 156.013 479.316 155.517C478.436 155.02 477.77 154.286 477.318 153.315C476.889 152.321 476.674 151.08 476.674 149.589V140.918C476.674 140.331 476.821 139.902 477.115 139.631C477.408 139.337 477.826 139.191 478.368 139.191C478.91 139.191 479.328 139.337 479.621 139.631C479.937 139.902 480.095 140.331 480.095 140.918V149.623C480.095 150.955 480.366 151.938 480.908 152.57C481.45 153.202 482.308 153.518 483.483 153.518C484.77 153.518 485.808 153.089 486.599 152.231C487.412 151.35 487.818 150.199 487.818 148.776V140.918C487.818 140.331 487.965 139.902 488.258 139.631C488.552 139.337 488.981 139.191 489.546 139.191C490.087 139.191 490.505 139.337 490.799 139.631C491.092 139.902 491.239 140.331 491.239 140.918V154.467C491.239 155.618 490.686 156.194 489.579 156.194C489.06 156.194 488.654 156.047 488.36 155.754C488.066 155.438 487.92 155.009 487.92 154.467V151.588L488.36 152.333C487.908 153.597 487.186 154.568 486.192 155.246C485.199 155.923 484.024 156.262 482.67 156.262ZM502.462 156.194C501.988 156.194 501.57 156.07 501.209 155.822C500.87 155.573 500.588 155.189 500.362 154.67L494.705 141.528C494.525 141.121 494.457 140.737 494.502 140.376C494.547 140.015 494.717 139.733 495.01 139.529C495.304 139.303 495.699 139.191 496.196 139.191C496.625 139.191 496.964 139.292 497.212 139.495C497.46 139.699 497.686 140.049 497.889 140.545L503.004 153.146H502.056L507.272 140.545C507.475 140.049 507.701 139.699 507.949 139.495C508.22 139.292 508.593 139.191 509.067 139.191C509.473 139.191 509.79 139.303 510.015 139.529C510.264 139.733 510.411 140.015 510.456 140.376C510.523 140.715 510.467 141.087 510.286 141.494L504.562 154.67C504.359 155.189 504.077 155.573 503.715 155.822C503.354 156.07 502.936 156.194 502.462 156.194ZM520.646 156.194C520.172 156.194 519.754 156.081 519.393 155.855C519.054 155.607 518.783 155.223 518.58 154.704L513.601 141.528C513.42 141.076 513.364 140.681 513.431 140.342C513.499 139.981 513.668 139.699 513.939 139.495C514.233 139.292 514.606 139.191 515.057 139.191C515.464 139.191 515.791 139.292 516.039 139.495C516.31 139.676 516.536 140.037 516.717 140.579L521.154 153.078H520.341L524.948 140.444C525.106 140.015 525.32 139.699 525.591 139.495C525.862 139.292 526.212 139.191 526.641 139.191C527.07 139.191 527.42 139.292 527.691 139.495C527.985 139.699 528.199 140.015 528.335 140.444L532.84 153.078H532.095L536.6 140.512C536.78 139.992 537.006 139.642 537.277 139.462C537.571 139.281 537.898 139.191 538.259 139.191C538.711 139.191 539.05 139.303 539.275 139.529C539.524 139.755 539.659 140.049 539.682 140.41C539.727 140.749 539.671 141.121 539.513 141.528L534.533 154.704C534.33 155.201 534.048 155.573 533.687 155.822C533.348 156.07 532.953 156.194 532.501 156.194C532.027 156.194 531.609 156.07 531.248 155.822C530.909 155.573 530.638 155.201 530.435 154.704L525.693 141.866H527.386L522.678 154.704C522.498 155.201 522.227 155.573 521.865 155.822C521.527 156.07 521.12 156.194 520.646 156.194ZM543.507 156.16C543.101 156.16 542.762 156.047 542.491 155.822C542.243 155.573 542.107 155.268 542.085 154.907C542.085 154.546 542.243 154.151 542.559 153.722L548.283 146.575V148.268L542.931 141.595C542.57 141.189 542.401 140.805 542.423 140.444C542.446 140.06 542.593 139.755 542.864 139.529C543.135 139.303 543.462 139.191 543.846 139.191C544.275 139.191 544.625 139.27 544.896 139.428C545.19 139.563 545.46 139.8 545.709 140.139L550.214 145.863H548.994L553.533 140.139C553.782 139.8 554.041 139.563 554.312 139.428C554.606 139.27 554.956 139.191 555.362 139.191C555.769 139.191 556.096 139.315 556.345 139.563C556.616 139.789 556.751 140.094 556.751 140.478C556.774 140.839 556.616 141.223 556.277 141.629L550.925 148.2V146.676L556.649 153.722C556.988 154.128 557.146 154.523 557.124 154.907C557.124 155.268 556.988 155.573 556.717 155.822C556.446 156.047 556.107 156.16 555.701 156.16C555.295 156.16 554.945 156.081 554.651 155.923C554.38 155.765 554.109 155.528 553.838 155.212L548.994 149.115H550.146L545.336 155.212C545.088 155.505 544.817 155.743 544.523 155.923C544.252 156.081 543.914 156.16 543.507 156.16ZM564.589 162.291C564.183 162.291 563.844 162.178 563.573 161.952C563.325 161.749 563.178 161.467 563.133 161.106C563.11 160.767 563.178 160.394 563.336 159.988L565.639 154.805V156.262L559.305 141.528C559.147 141.121 559.091 140.737 559.136 140.376C559.181 140.015 559.351 139.733 559.644 139.529C559.938 139.303 560.333 139.191 560.83 139.191C561.259 139.191 561.597 139.292 561.846 139.495C562.094 139.699 562.32 140.049 562.523 140.545L567.638 153.18H566.689L571.872 140.545C572.075 140.026 572.312 139.676 572.583 139.495C572.854 139.292 573.227 139.191 573.701 139.191C574.107 139.191 574.423 139.303 574.649 139.529C574.898 139.733 575.044 140.015 575.09 140.376C575.157 140.715 575.101 141.087 574.92 141.494L566.452 160.97C566.227 161.489 565.967 161.839 565.673 162.02C565.402 162.201 565.041 162.291 564.589 162.291ZM578.704 155.957C578.342 155.957 578.049 155.878 577.823 155.72C577.597 155.539 577.439 155.313 577.349 155.042C577.281 154.749 577.281 154.444 577.349 154.128C577.439 153.789 577.62 153.473 577.891 153.18L587.104 141.223V142.07H578.5C578.071 142.07 577.744 141.957 577.518 141.731C577.292 141.483 577.179 141.155 577.179 140.749C577.179 140.32 577.292 139.992 577.518 139.766C577.744 139.541 578.071 139.428 578.5 139.428H588.73C589.159 139.428 589.497 139.518 589.746 139.699C590.017 139.879 590.186 140.105 590.254 140.376C590.344 140.647 590.355 140.941 590.288 141.257C590.22 141.573 590.051 141.878 589.78 142.171L580.431 154.263V153.349H589.475C590.378 153.349 590.83 153.778 590.83 154.636C590.83 155.042 590.705 155.37 590.457 155.618C590.231 155.844 589.904 155.957 589.475 155.957H578.704Z" fill="#1F1F1F"/>
<path d="M464.642 221.897C464.19 221.897 463.829 221.796 463.558 221.592C463.287 221.389 463.129 221.118 463.084 220.779C463.039 220.441 463.106 220.057 463.287 219.628L472.466 199.034C472.692 198.492 472.974 198.108 473.313 197.882C473.674 197.656 474.07 197.544 474.499 197.544C474.905 197.544 475.278 197.656 475.616 197.882C475.978 198.108 476.271 198.492 476.497 199.034L485.676 219.628C485.879 220.057 485.959 220.452 485.913 220.813C485.868 221.152 485.721 221.423 485.473 221.626C485.225 221.807 484.875 221.897 484.423 221.897C483.926 221.897 483.531 221.773 483.237 221.525C482.944 221.276 482.684 220.892 482.458 220.373L480.087 214.886L481.679 215.834H467.25L468.808 214.886L466.471 220.373C466.245 220.915 465.997 221.31 465.726 221.559C465.455 221.784 465.094 221.897 464.642 221.897ZM474.431 201.676L469.316 213.802L468.469 212.989H480.426L479.647 213.802L474.499 201.676H474.431ZM491.615 221.66C491.005 221.66 490.531 221.502 490.192 221.186C489.876 220.847 489.718 220.373 489.718 219.763V199.677C489.718 199.068 489.876 198.605 490.192 198.289C490.531 197.95 491.005 197.781 491.615 197.781H499.676C501.325 197.781 502.725 198.029 503.876 198.526C505.051 199.023 505.943 199.734 506.552 200.66C507.185 201.586 507.501 202.703 507.501 204.013C507.501 205.458 507.072 206.678 506.214 207.671C505.355 208.665 504.193 209.331 502.725 209.67V209.162C504.396 209.387 505.705 210.02 506.654 211.058C507.602 212.074 508.076 213.407 508.076 215.055C508.076 217.178 507.376 218.815 505.976 219.967C504.576 221.096 502.612 221.66 500.083 221.66H491.615ZM493.105 218.95H499.676C501.37 218.95 502.623 218.623 503.436 217.968C504.249 217.291 504.655 216.275 504.655 214.92C504.655 213.565 504.249 212.56 503.436 211.905C502.623 211.25 501.37 210.923 499.676 210.923H493.105V218.95ZM493.105 208.213H499.134C500.76 208.213 501.991 207.886 502.826 207.231C503.662 206.576 504.08 205.616 504.08 204.352C504.08 203.087 503.662 202.128 502.826 201.473C501.991 200.818 500.76 200.49 499.134 200.49H493.105V208.213ZM523.51 221.965C521.094 221.965 519.027 221.468 517.311 220.475C515.595 219.481 514.274 218.07 513.348 216.241C512.445 214.389 511.993 212.21 511.993 209.703C511.993 207.829 512.253 206.147 512.772 204.657C513.292 203.144 514.037 201.857 515.008 200.795C516.002 199.711 517.21 198.887 518.632 198.323C520.077 197.758 521.703 197.476 523.51 197.476C524.842 197.476 526.118 197.656 527.337 198.018C528.579 198.379 529.652 198.898 530.555 199.576C530.939 199.824 531.187 200.129 531.3 200.49C531.436 200.829 531.458 201.157 531.368 201.473C531.3 201.789 531.153 202.06 530.928 202.286C530.702 202.489 530.408 202.602 530.047 202.624C529.708 202.647 529.336 202.523 528.929 202.252C528.184 201.687 527.36 201.269 526.457 200.998C525.553 200.728 524.605 200.592 523.611 200.592C521.895 200.592 520.45 200.953 519.276 201.676C518.102 202.376 517.21 203.403 516.6 204.758C515.99 206.113 515.685 207.762 515.685 209.703C515.685 211.645 515.99 213.305 516.6 214.683C517.21 216.037 518.102 217.076 519.276 217.799C520.45 218.499 521.895 218.849 523.611 218.849C524.605 218.849 525.553 218.713 526.457 218.442C527.382 218.149 528.252 217.72 529.065 217.155C529.471 216.907 529.832 216.794 530.149 216.817C530.487 216.839 530.77 216.952 530.995 217.155C531.221 217.358 531.368 217.618 531.436 217.934C531.526 218.228 531.515 218.544 531.402 218.883C531.312 219.199 531.097 219.47 530.758 219.696C529.832 220.441 528.737 221.005 527.473 221.389C526.208 221.773 524.887 221.965 523.51 221.965ZM537.593 221.66C536.983 221.66 536.509 221.502 536.17 221.186C535.854 220.847 535.696 220.373 535.696 219.763V199.677C535.696 199.068 535.854 198.605 536.17 198.289C536.509 197.95 536.983 197.781 537.593 197.781H544.13C548.059 197.781 551.085 198.808 553.208 200.863C555.353 202.895 556.426 205.842 556.426 209.703C556.426 211.623 556.155 213.328 555.613 214.818C555.071 216.308 554.269 217.562 553.208 218.578C552.169 219.571 550.893 220.339 549.38 220.881C547.867 221.4 546.117 221.66 544.13 221.66H537.593ZM539.219 218.713H543.927C545.417 218.713 546.704 218.533 547.788 218.171C548.895 217.788 549.821 217.223 550.566 216.478C551.311 215.733 551.864 214.796 552.225 213.666C552.587 212.537 552.767 211.216 552.767 209.703C552.767 206.7 552.022 204.453 550.532 202.963C549.064 201.473 546.862 200.728 543.927 200.728H539.219V218.713ZM563.03 221.66C562.42 221.66 561.946 221.502 561.607 221.186C561.291 220.847 561.133 220.373 561.133 219.763V199.677C561.133 199.068 561.291 198.605 561.607 198.289C561.946 197.95 562.42 197.781 563.03 197.781H575.393C575.867 197.781 576.228 197.905 576.477 198.153C576.725 198.379 576.849 198.718 576.849 199.169C576.849 199.644 576.725 200.005 576.477 200.253C576.228 200.502 575.867 200.626 575.393 200.626H564.52V208.112H574.648C575.144 208.112 575.506 208.236 575.732 208.484C575.98 208.732 576.104 209.083 576.104 209.534C576.104 210.008 575.98 210.37 575.732 210.618C575.506 210.844 575.144 210.957 574.648 210.957H564.52V218.815H575.393C575.867 218.815 576.228 218.939 576.477 219.188C576.725 219.436 576.849 219.786 576.849 220.238C576.849 220.712 576.725 221.073 576.477 221.321C576.228 221.547 575.867 221.66 575.393 221.66H563.03ZM582.942 221.897C582.355 221.897 581.892 221.739 581.553 221.423C581.237 221.107 581.079 220.644 581.079 220.034V199.677C581.079 199.068 581.237 198.605 581.553 198.289C581.892 197.95 582.366 197.781 582.976 197.781H595.034C595.531 197.781 595.892 197.905 596.118 198.153C596.366 198.379 596.49 198.718 596.49 199.169C596.49 199.644 596.366 200.005 596.118 200.253C595.892 200.502 595.531 200.626 595.034 200.626H584.601V208.247H594.356C594.808 208.247 595.158 208.371 595.406 208.62C595.677 208.845 595.813 209.184 595.813 209.636C595.813 210.11 595.677 210.471 595.406 210.72C595.158 210.968 594.808 211.092 594.356 211.092H584.601V220.034C584.601 221.276 584.048 221.897 582.942 221.897ZM610.515 221.965C607.918 221.965 605.728 221.48 603.944 220.509C602.16 219.515 600.805 218.104 599.88 216.275C598.976 214.446 598.525 212.266 598.525 209.737C598.525 207.841 598.784 206.147 599.304 204.657C599.846 203.144 600.614 201.857 601.607 200.795C602.623 199.711 603.854 198.887 605.299 198.323C606.767 197.758 608.427 197.476 610.278 197.476C611.633 197.476 612.965 197.656 614.275 198.018C615.585 198.356 616.782 198.921 617.865 199.711C618.182 199.937 618.385 200.197 618.475 200.49C618.565 200.784 618.565 201.089 618.475 201.405C618.407 201.698 618.261 201.958 618.035 202.184C617.832 202.41 617.572 202.545 617.256 202.59C616.962 202.636 616.635 202.545 616.273 202.319C615.393 201.71 614.467 201.269 613.496 200.998C612.525 200.705 611.452 200.558 610.278 200.558C608.517 200.558 607.027 200.919 605.807 201.642C604.61 202.365 603.707 203.415 603.097 204.792C602.488 206.147 602.183 207.795 602.183 209.737C602.183 212.741 602.894 215.021 604.317 216.579C605.739 218.138 607.851 218.917 610.651 218.917C611.667 218.917 612.661 218.826 613.631 218.646C614.625 218.442 615.573 218.16 616.477 217.799L615.765 219.56V211.668H611.396C610.944 211.668 610.583 211.555 610.312 211.329C610.064 211.081 609.939 210.742 609.939 210.313C609.939 209.884 610.064 209.568 610.312 209.365C610.583 209.139 610.944 209.026 611.396 209.026H617.256C617.73 209.026 618.091 209.15 618.34 209.399C618.588 209.647 618.712 210.008 618.712 210.483V219.018C618.712 219.425 618.633 219.775 618.475 220.068C618.34 220.339 618.103 220.542 617.764 220.678C616.793 221.062 615.653 221.378 614.343 221.626C613.033 221.852 611.757 221.965 610.515 221.965ZM625.874 221.897C625.31 221.897 624.869 221.739 624.553 221.423C624.26 221.107 624.113 220.667 624.113 220.102V199.339C624.113 198.752 624.26 198.311 624.553 198.018C624.869 197.702 625.31 197.544 625.874 197.544C626.439 197.544 626.868 197.702 627.161 198.018C627.477 198.311 627.636 198.752 627.636 199.339V208.078H641.015V199.339C641.015 198.752 641.162 198.311 641.455 198.018C641.771 197.702 642.212 197.544 642.776 197.544C643.341 197.544 643.77 197.702 644.063 198.018C644.357 198.311 644.504 198.752 644.504 199.339V220.102C644.504 220.667 644.357 221.107 644.063 221.423C643.77 221.739 643.341 221.897 642.776 221.897C642.212 221.897 641.771 221.739 641.455 221.423C641.162 221.107 641.015 220.667 641.015 220.102V211.024H627.636V220.102C627.636 220.667 627.489 221.107 627.195 221.423C626.902 221.739 626.461 221.897 625.874 221.897ZM651.84 221.897C651.276 221.897 650.835 221.739 650.519 221.423C650.226 221.107 650.079 220.667 650.079 220.102V199.339C650.079 198.752 650.226 198.311 650.519 198.018C650.835 197.702 651.276 197.544 651.84 197.544C652.405 197.544 652.834 197.702 653.127 198.018C653.444 198.311 653.602 198.752 653.602 199.339V220.102C653.602 220.667 653.455 221.107 653.161 221.423C652.868 221.739 652.427 221.897 651.84 221.897ZM657.584 221.863C657.065 221.886 656.658 221.75 656.365 221.457C656.071 221.163 655.924 220.791 655.924 220.339C655.924 220 656.037 219.696 656.263 219.425C656.466 219.154 656.771 219.007 657.178 218.984L658.228 218.917C659.312 218.826 660.136 218.465 660.7 217.833C661.265 217.178 661.547 216.275 661.547 215.123V199.305C661.547 198.718 661.694 198.277 661.987 197.984C662.281 197.69 662.71 197.544 663.275 197.544C663.839 197.544 664.268 197.69 664.562 197.984C664.878 198.277 665.036 198.718 665.036 199.305V215.123C665.036 216.478 664.787 217.641 664.291 218.612C663.816 219.56 663.116 220.305 662.191 220.847C661.265 221.389 660.113 221.705 658.736 221.796L657.584 221.863ZM672.348 221.897C671.784 221.897 671.344 221.739 671.027 221.423C670.734 221.107 670.587 220.667 670.587 220.102V199.305C670.587 198.718 670.734 198.277 671.027 197.984C671.344 197.69 671.784 197.544 672.348 197.544C672.913 197.544 673.342 197.69 673.636 197.984C673.952 198.277 674.11 198.718 674.11 199.305V208.518H674.178L684.576 198.458C684.915 198.142 685.231 197.916 685.524 197.781C685.841 197.623 686.191 197.544 686.575 197.544C687.094 197.544 687.466 197.679 687.692 197.95C687.941 198.198 688.042 198.503 687.997 198.865C687.952 199.226 687.76 199.576 687.421 199.915L676.616 210.212L676.684 208.484L687.929 219.323C688.336 219.707 688.55 220.102 688.573 220.509C688.596 220.915 688.471 221.254 688.2 221.525C687.929 221.773 687.545 221.897 687.049 221.897C686.597 221.897 686.236 221.807 685.965 221.626C685.694 221.446 685.378 221.186 685.016 220.847L674.178 210.516H674.11V220.102C674.11 220.667 673.963 221.107 673.669 221.423C673.376 221.739 672.936 221.897 672.348 221.897ZM694.147 221.66C693.583 221.66 693.143 221.502 692.826 221.186C692.51 220.87 692.352 220.429 692.352 219.865V199.44C692.352 198.853 692.499 198.413 692.793 198.119C693.109 197.803 693.549 197.645 694.114 197.645C694.678 197.645 695.107 197.803 695.401 198.119C695.717 198.413 695.875 198.853 695.875 199.44V218.646H706.375C706.872 218.646 707.256 218.781 707.527 219.052C707.798 219.3 707.933 219.662 707.933 220.136C707.933 220.61 707.798 220.983 707.527 221.254C707.256 221.525 706.872 221.66 706.375 221.66H694.147ZM712.735 221.897C712.215 221.897 711.809 221.75 711.515 221.457C711.244 221.163 711.109 220.757 711.109 220.238V199.203C711.109 198.661 711.256 198.255 711.549 197.984C711.843 197.69 712.238 197.544 712.735 197.544C713.209 197.544 713.57 197.634 713.819 197.815C714.09 197.973 714.338 198.266 714.564 198.695L723.438 215.258H722.388L731.229 198.695C731.454 198.266 731.692 197.973 731.94 197.815C732.188 197.634 732.55 197.544 733.024 197.544C733.521 197.544 733.905 197.69 734.175 197.984C734.446 198.255 734.582 198.661 734.582 199.203V220.238C734.582 220.757 734.446 221.163 734.175 221.457C733.927 221.75 733.543 221.897 733.024 221.897C732.504 221.897 732.109 221.75 731.838 221.457C731.567 221.163 731.432 220.757 731.432 220.238V202.76H732.177L724.319 217.291C724.138 217.629 723.946 217.878 723.743 218.036C723.54 218.194 723.258 218.273 722.896 218.273C722.535 218.273 722.241 218.194 722.016 218.036C721.79 217.855 721.587 217.607 721.406 217.291L713.48 202.726H714.293V220.238C714.293 220.757 714.157 221.163 713.886 221.457C713.638 221.75 713.254 221.897 712.735 221.897ZM741.875 221.897C741.356 221.897 740.95 221.75 740.656 221.457C740.363 221.163 740.216 220.746 740.216 220.204V199.305C740.216 198.74 740.351 198.311 740.622 198.018C740.916 197.702 741.3 197.544 741.774 197.544C742.18 197.544 742.485 197.623 742.688 197.781C742.914 197.916 743.174 198.176 743.467 198.56L757.423 216.952H756.576V199.203C756.576 198.684 756.711 198.277 756.982 197.984C757.276 197.69 757.682 197.544 758.202 197.544C758.743 197.544 759.15 197.69 759.421 197.984C759.692 198.277 759.827 198.684 759.827 199.203V220.238C759.827 220.757 759.692 221.163 759.421 221.457C759.173 221.75 758.834 221.897 758.405 221.897C757.998 221.897 757.66 221.818 757.389 221.66C757.14 221.502 756.869 221.231 756.576 220.847L742.688 202.489H743.467V220.204C743.467 220.746 743.332 221.163 743.061 221.457C742.79 221.75 742.395 221.897 741.875 221.897ZM475.142 267.965C472.884 267.965 470.908 267.468 469.215 266.475C467.544 265.459 466.245 264.036 465.319 262.207C464.416 260.355 463.965 258.187 463.965 255.703C463.965 253.829 464.224 252.147 464.744 250.657C465.263 249.144 466.008 247.857 466.979 246.795C467.95 245.711 469.124 244.887 470.502 244.323C471.879 243.758 473.426 243.476 475.142 243.476C477.423 243.476 479.399 243.973 481.07 244.966C482.741 245.96 484.028 247.371 484.931 249.2C485.857 251.029 486.32 253.186 486.32 255.67C486.32 257.544 486.06 259.237 485.541 260.75C485.021 262.263 484.265 263.562 483.271 264.646C482.3 265.729 481.126 266.554 479.749 267.118C478.371 267.683 476.836 267.965 475.142 267.965ZM475.142 264.917C476.723 264.917 478.066 264.555 479.173 263.833C480.302 263.11 481.16 262.06 481.747 260.683C482.357 259.305 482.662 257.645 482.662 255.703C482.662 252.791 482.007 250.532 480.697 248.929C479.387 247.326 477.536 246.524 475.142 246.524C473.562 246.524 472.207 246.886 471.078 247.608C469.971 248.308 469.113 249.347 468.503 250.724C467.916 252.102 467.623 253.762 467.623 255.703C467.623 258.594 468.278 260.852 469.587 262.478C470.92 264.104 472.771 264.917 475.142 264.917ZM492.803 267.897C492.238 267.897 491.798 267.739 491.482 267.423C491.188 267.107 491.041 266.667 491.041 266.102V245.576C491.041 244.989 491.199 244.548 491.515 244.255C491.832 243.939 492.272 243.781 492.836 243.781H500.932C503.506 243.781 505.493 244.424 506.893 245.711C508.293 246.976 508.993 248.76 508.993 251.063C508.993 253.389 508.293 255.195 506.893 256.483C505.493 257.747 503.506 258.379 500.932 258.379H494.564V266.102C494.564 266.667 494.417 267.107 494.124 267.423C493.83 267.739 493.39 267.897 492.803 267.897ZM494.564 255.568H500.424C502.117 255.568 503.393 255.195 504.251 254.45C505.132 253.682 505.572 252.553 505.572 251.063C505.572 249.595 505.132 248.489 504.251 247.744C503.393 246.976 502.117 246.592 500.424 246.592H494.564V255.568ZM531.577 271.86C531.848 272.267 531.961 272.639 531.915 272.978C531.87 273.317 531.724 273.599 531.475 273.825C531.249 274.073 530.956 274.22 530.594 274.265C530.256 274.333 529.906 274.299 529.544 274.164C529.206 274.028 528.912 273.757 528.664 273.351L526.428 269.726C526.09 269.162 525.627 268.721 525.04 268.405C524.452 268.112 523.741 267.965 522.906 267.965L525.683 266.847C526.744 266.847 527.58 267.039 528.19 267.423C528.822 267.784 529.443 268.45 530.053 269.421L531.577 271.86ZM522.94 267.965C520.681 267.965 518.706 267.468 517.012 266.475C515.341 265.459 514.043 264.036 513.117 262.207C512.213 260.355 511.762 258.187 511.762 255.703C511.762 253.829 512.022 252.147 512.541 250.657C513.06 249.144 513.805 247.857 514.776 246.795C515.747 245.711 516.922 244.887 518.299 244.323C519.677 243.758 521.223 243.476 522.94 243.476C525.22 243.476 527.196 243.973 528.867 244.966C530.538 245.96 531.825 247.371 532.728 249.2C533.654 251.029 534.117 253.186 534.117 255.67C534.117 257.544 533.857 259.237 533.338 260.75C532.819 262.263 532.062 263.562 531.069 264.646C530.098 265.729 528.923 266.554 527.546 267.118C526.169 267.683 524.633 267.965 522.94 267.965ZM522.94 264.917C524.52 264.917 525.864 264.555 526.97 263.833C528.099 263.11 528.957 262.06 529.544 260.683C530.154 259.305 530.459 257.645 530.459 255.703C530.459 252.791 529.804 250.532 528.494 248.929C527.185 247.326 525.333 246.524 522.94 246.524C521.359 246.524 520.004 246.886 518.875 247.608C517.768 248.308 516.91 249.347 516.301 250.724C515.714 252.102 515.42 253.762 515.42 255.703C515.42 258.594 516.075 260.852 517.385 262.478C518.717 264.104 520.568 264.917 522.94 264.917ZM540.6 267.897C540.035 267.897 539.595 267.739 539.279 267.423C538.985 267.107 538.839 266.667 538.839 266.102V245.576C538.839 244.989 538.997 244.548 539.313 244.255C539.629 243.939 540.069 243.781 540.634 243.781H548.729C551.303 243.781 553.29 244.39 554.69 245.61C556.09 246.829 556.79 248.557 556.79 250.792C556.79 252.237 556.474 253.479 555.842 254.518C555.21 255.557 554.284 256.347 553.065 256.889C551.868 257.431 550.423 257.702 548.729 257.702L549.034 257.228H549.915C550.818 257.228 551.597 257.454 552.252 257.905C552.929 258.357 553.539 259.079 554.081 260.073L556.994 265.492C557.22 265.899 557.321 266.294 557.299 266.678C557.299 267.039 557.163 267.333 556.892 267.559C556.644 267.784 556.282 267.897 555.808 267.897C555.311 267.897 554.905 267.796 554.589 267.592C554.295 267.367 554.024 267.039 553.776 266.61L550.219 260.039C549.745 259.158 549.203 258.571 548.594 258.278C547.984 257.962 547.182 257.804 546.189 257.804H542.361V266.102C542.361 266.667 542.214 267.107 541.921 267.423C541.627 267.739 541.187 267.897 540.6 267.897ZM542.361 255.162H548.153C549.869 255.162 551.168 254.8 552.048 254.078C552.929 253.355 553.369 252.282 553.369 250.86C553.369 249.46 552.929 248.399 552.048 247.676C551.168 246.953 549.869 246.592 548.153 246.592H542.361V255.162ZM569.688 267.965C568.649 267.965 567.633 267.886 566.64 267.728C565.646 267.57 564.709 267.333 563.828 267.017C562.948 266.678 562.157 266.271 561.457 265.797C561.119 265.549 560.882 265.267 560.746 264.95C560.633 264.634 560.599 264.329 560.644 264.036C560.712 263.72 560.848 263.449 561.051 263.223C561.254 262.997 561.502 262.862 561.796 262.817C562.09 262.749 562.417 262.839 562.778 263.087C563.794 263.742 564.867 264.228 565.996 264.544C567.125 264.838 568.356 264.984 569.688 264.984C571.608 264.984 573.019 264.646 573.922 263.968C574.848 263.268 575.311 262.365 575.311 261.258C575.311 260.355 574.983 259.644 574.329 259.125C573.674 258.583 572.579 258.154 571.043 257.837L567.419 257.092C565.274 256.641 563.67 255.895 562.609 254.857C561.57 253.818 561.051 252.418 561.051 250.657C561.051 249.595 561.265 248.624 561.694 247.744C562.146 246.863 562.767 246.107 563.557 245.474C564.348 244.819 565.296 244.323 566.403 243.984C567.509 243.645 568.717 243.476 570.027 243.476C571.427 243.476 572.737 243.656 573.956 244.018C575.198 244.379 576.304 244.932 577.275 245.677C577.569 245.881 577.761 246.14 577.851 246.457C577.964 246.75 577.987 247.044 577.919 247.337C577.874 247.631 577.75 247.879 577.546 248.082C577.343 248.286 577.083 248.41 576.767 248.455C576.451 248.478 576.101 248.365 575.717 248.116C574.837 247.529 573.933 247.111 573.008 246.863C572.104 246.592 571.099 246.457 569.993 246.457C568.887 246.457 567.916 246.626 567.08 246.965C566.267 247.303 565.635 247.778 565.183 248.387C564.754 248.997 564.54 249.719 564.54 250.555C564.54 251.503 564.844 252.26 565.454 252.824C566.064 253.389 567.08 253.818 568.503 254.112L572.093 254.857C574.351 255.331 576.033 256.065 577.14 257.058C578.246 258.052 578.8 259.373 578.8 261.021C578.8 262.083 578.585 263.042 578.156 263.9C577.727 264.736 577.117 265.459 576.327 266.068C575.537 266.678 574.577 267.152 573.448 267.491C572.341 267.807 571.088 267.965 569.688 267.965ZM589.89 267.897C589.325 267.897 588.885 267.739 588.569 267.423C588.275 267.107 588.129 266.667 588.129 266.102V246.728H580.948C580.474 246.728 580.101 246.603 579.83 246.355C579.559 246.084 579.424 245.711 579.424 245.237C579.424 244.763 579.559 244.402 579.83 244.153C580.101 243.905 580.474 243.781 580.948 243.781H598.798C599.295 243.781 599.679 243.905 599.95 244.153C600.221 244.402 600.356 244.763 600.356 245.237C600.356 245.711 600.221 246.084 599.95 246.355C599.679 246.603 599.295 246.728 598.798 246.728H591.617V266.102C591.617 266.667 591.471 267.107 591.177 267.423C590.906 267.739 590.477 267.897 589.89 267.897ZM612.663 267.965C611.059 267.965 609.648 267.762 608.429 267.355C607.209 266.926 606.182 266.294 605.346 265.459C604.534 264.623 603.913 263.584 603.484 262.342C603.054 261.1 602.84 259.666 602.84 258.041V245.305C602.84 244.718 602.987 244.277 603.28 243.984C603.596 243.69 604.037 243.544 604.601 243.544C605.166 243.544 605.595 243.69 605.888 243.984C606.205 244.277 606.363 244.718 606.363 245.305V257.973C606.363 260.299 606.893 262.037 607.955 263.189C609.038 264.341 610.608 264.917 612.663 264.917C614.74 264.917 616.31 264.341 617.371 263.189C618.432 262.037 618.963 260.299 618.963 257.973V245.305C618.963 244.718 619.11 244.277 619.403 243.984C619.719 243.69 620.148 243.544 620.69 243.544C621.255 243.544 621.684 243.69 621.977 243.984C622.271 244.277 622.418 244.718 622.418 245.305V258.041C622.418 260.208 622.045 262.037 621.3 263.528C620.577 264.996 619.493 266.102 618.048 266.847C616.603 267.592 614.808 267.965 612.663 267.965ZM636.928 267.897C636.431 267.897 636.014 267.784 635.675 267.559C635.359 267.31 635.099 266.949 634.896 266.475L625.785 245.847C625.604 245.373 625.559 244.966 625.649 244.627C625.739 244.289 625.92 244.029 626.191 243.848C626.485 243.645 626.835 243.544 627.241 243.544C627.76 243.544 628.156 243.656 628.427 243.882C628.697 244.108 628.923 244.447 629.104 244.898L637.64 264.679H636.386L644.854 244.865C645.057 244.436 645.295 244.108 645.566 243.882C645.859 243.656 646.254 243.544 646.751 243.544C647.157 243.544 647.485 243.645 647.733 243.848C648.004 244.029 648.174 244.289 648.241 244.627C648.309 244.966 648.241 245.373 648.038 245.847L638.961 266.475C638.757 266.949 638.498 267.31 638.182 267.559C637.865 267.784 637.448 267.897 636.928 267.897ZM659.595 267.897C659.098 267.897 658.692 267.773 658.376 267.525C658.082 267.276 657.834 266.892 657.63 266.373L650.348 245.61C650.145 245.023 650.179 244.537 650.45 244.153C650.743 243.747 651.217 243.544 651.872 243.544C652.369 243.544 652.753 243.656 653.024 243.882C653.317 244.108 653.543 244.469 653.701 244.966L660.306 264.408H659.053L665.827 245.034C666.031 244.537 666.268 244.165 666.539 243.916C666.81 243.668 667.171 243.544 667.623 243.544C668.074 243.544 668.424 243.668 668.673 243.916C668.944 244.165 669.181 244.548 669.384 245.068L676.023 264.408H674.905L681.578 244.966C681.736 244.492 681.95 244.142 682.221 243.916C682.515 243.668 682.899 243.544 683.373 243.544C683.96 243.544 684.389 243.747 684.66 244.153C684.954 244.537 684.987 245.023 684.762 245.61L677.445 266.407C677.242 266.904 676.994 267.276 676.7 267.525C676.407 267.773 676.011 267.897 675.515 267.897C674.995 267.897 674.589 267.773 674.295 267.525C674.002 267.276 673.765 266.892 673.584 266.373L667.182 248.048H667.927L661.458 266.407C661.277 266.904 661.04 267.276 660.747 267.525C660.476 267.773 660.092 267.897 659.595 267.897ZM688.785 267.897C688.333 267.897 687.96 267.784 687.667 267.559C687.373 267.31 687.204 267.005 687.159 266.644C687.114 266.26 687.238 265.876 687.531 265.492L695.525 254.755V256.178L687.972 246.016C687.678 245.61 687.543 245.215 687.565 244.831C687.61 244.447 687.78 244.142 688.073 243.916C688.367 243.668 688.728 243.544 689.157 243.544C689.519 243.544 689.835 243.634 690.106 243.815C690.399 243.973 690.693 244.255 690.986 244.661L697.557 253.671H696.473L702.977 244.661C703.27 244.255 703.553 243.973 703.824 243.815C704.117 243.634 704.456 243.544 704.84 243.544C705.291 243.544 705.664 243.668 705.958 243.916C706.251 244.142 706.409 244.447 706.432 244.831C706.477 245.192 706.341 245.587 706.025 246.016L698.472 256.178V254.755L706.432 265.492C706.725 265.876 706.849 266.26 706.804 266.644C706.782 267.005 706.624 267.31 706.33 267.559C706.037 267.784 705.653 267.897 705.178 267.897C704.84 267.897 704.524 267.807 704.23 267.626C703.937 267.446 703.632 267.163 703.316 266.779L696.338 257.228H697.625L690.681 266.779C690.388 267.163 690.083 267.446 689.767 267.626C689.473 267.807 689.146 267.897 688.785 267.897ZM718.295 267.897C717.731 267.897 717.29 267.739 716.974 267.423C716.681 267.107 716.534 266.655 716.534 266.068V255.331L717.313 257.566L708.947 245.948C708.698 245.61 708.585 245.26 708.608 244.898C708.631 244.515 708.777 244.198 709.048 243.95C709.342 243.679 709.726 243.544 710.2 243.544C710.561 243.544 710.889 243.634 711.182 243.815C711.498 243.995 711.792 244.277 712.063 244.661L718.769 253.976H717.957L724.663 244.661C724.957 244.255 725.239 243.973 725.51 243.815C725.781 243.634 726.12 243.544 726.526 243.544C727 243.544 727.362 243.668 727.61 243.916C727.881 244.142 728.016 244.447 728.016 244.831C728.039 245.192 727.904 245.576 727.61 245.982L719.311 257.566L720.023 255.331V266.068C720.023 267.288 719.447 267.897 718.295 267.897ZM731.791 267.66C731.34 267.66 730.967 267.57 730.673 267.389C730.402 267.209 730.211 266.96 730.098 266.644C730.007 266.305 730.007 265.944 730.098 265.56C730.211 265.154 730.425 264.736 730.741 264.307L744.29 245.542V246.728H731.52C731.001 246.728 730.606 246.603 730.335 246.355C730.064 246.084 729.928 245.711 729.928 245.237C729.928 244.763 730.064 244.402 730.335 244.153C730.606 243.905 731.001 243.781 731.52 243.781H745.916C746.367 243.781 746.74 243.871 747.033 244.052C747.327 244.232 747.519 244.481 747.609 244.797C747.722 245.113 747.722 245.474 747.609 245.881C747.519 246.287 747.316 246.705 747 247.134L733.417 265.899V264.713H746.695C747.214 264.713 747.609 264.838 747.88 265.086C748.151 265.334 748.287 265.696 748.287 266.17C748.287 266.644 748.151 267.017 747.88 267.288C747.609 267.536 747.214 267.66 746.695 267.66H731.791Z" fill="#1F1F1F"/>
<g filter="url(#filter0_i_272_8465)">
<path d="M214.207 26.4048H212.498L211.721 30.3925H213.861V31.4109H211.531L210.91 34.5527H209.822L210.426 31.4109H207.681L207.077 34.5527H205.972L206.594 31.4109H205.058V30.3925H206.784L207.561 26.4048H205.403V25.3863H207.768L208.355 22.3826H209.442L208.855 25.3863H211.6L212.187 22.3826H213.292L212.705 25.3863H214.207V26.4048ZM210.633 30.3925L211.41 26.4048H208.665L207.889 30.3925H210.633ZM223.211 28.3037C223.913 28.4878 224.454 28.8331 224.834 29.3394C225.225 29.8458 225.421 30.4788 225.421 31.2383C225.421 32.3086 225.07 33.1315 224.368 33.7069C223.666 34.2708 222.67 34.5527 221.381 34.5527H216.306V22.3826H221.191C222.446 22.3826 223.418 22.6588 224.109 23.2112C224.799 23.7636 225.144 24.5462 225.144 25.5589C225.144 26.2149 224.972 26.7788 224.627 27.2507C224.293 27.7225 223.821 28.0735 223.211 28.3037ZM217.704 27.7858H220.984C221.893 27.7858 222.578 27.6017 223.038 27.2334C223.51 26.8651 223.746 26.33 223.746 25.628C223.746 24.247 222.825 23.5565 220.984 23.5565H217.704V27.7858ZM221.243 33.3789C222.198 33.3789 222.9 33.2063 223.349 32.861C223.809 32.5042 224.04 31.9518 224.04 31.2038C224.04 29.7077 223.107 28.9597 221.243 28.9597H217.704V33.3789H221.243ZM233.134 34.6908C231.983 34.6908 230.982 34.4434 230.13 33.9485C229.279 33.4422 228.623 32.7229 228.162 31.7907C227.714 30.847 227.489 29.7365 227.489 28.4591C227.489 27.1816 227.714 26.0768 228.162 25.1446C228.623 24.2125 229.279 23.4989 230.13 23.0041C230.982 22.4977 231.983 22.2445 233.134 22.2445C233.974 22.2445 234.745 22.3769 235.447 22.6416C236.149 22.8948 236.759 23.2745 237.277 23.7809L236.742 24.8684C236.155 24.3736 235.58 24.0168 235.016 23.7982C234.452 23.5795 233.83 23.4702 233.151 23.4702C231.816 23.4702 230.781 23.9075 230.044 24.7821C229.319 25.6453 228.956 26.8709 228.956 28.4591C228.956 30.0587 229.319 31.2959 230.044 32.1705C230.781 33.0336 231.816 33.4652 233.151 33.4652C233.83 33.4652 234.452 33.3559 235.016 33.1372C235.58 32.9185 236.155 32.5618 236.742 32.0669L237.277 33.1545C236.759 33.6608 236.149 34.0464 235.447 34.3111C234.745 34.5642 233.974 34.6908 233.134 34.6908ZM239.621 34.5527V22.3826H247.32V23.5565H241.019V27.7858H246.974V28.9597H241.019V33.3789H247.32V34.5527H239.621ZM253.345 34.6908C251.952 34.6908 250.894 34.1614 250.169 33.1027C249.443 32.0439 249.081 30.5018 249.081 28.4763C249.081 26.4393 249.443 24.8915 250.169 23.8327C250.894 22.7739 251.952 22.2445 253.345 22.2445C254.737 22.2445 255.796 22.7739 256.521 23.8327C257.246 24.8799 257.609 26.4221 257.609 28.4591C257.609 30.496 257.246 32.0439 256.521 33.1027C255.796 34.1614 254.737 34.6908 253.345 34.6908ZM253.345 33.4997C254.312 33.4997 255.025 33.0912 255.485 32.2741C255.946 31.457 256.176 30.1853 256.176 28.4591C256.176 26.7213 255.946 25.4554 255.485 24.6613C255.037 23.8557 254.323 23.4529 253.345 23.4529C252.378 23.4529 251.665 23.8557 251.204 24.6613C250.744 25.4669 250.514 26.7328 250.514 28.4591C250.514 30.1853 250.744 31.457 251.204 32.2741C251.665 33.0912 252.378 33.4997 253.345 33.4997ZM263.316 22.2445C264.789 22.2445 265.922 22.7567 266.717 23.7809C267.522 24.8051 267.925 26.2667 267.925 28.1656C267.925 30.2256 267.511 31.831 266.682 32.9818C265.853 34.1212 264.697 34.6908 263.212 34.6908C262.522 34.6908 261.843 34.5642 261.175 34.3111C260.508 34.0464 259.921 33.6723 259.415 33.189L259.95 32.1015C260.525 32.5848 261.072 32.9416 261.59 33.1717C262.119 33.3904 262.654 33.4997 263.195 33.4997C264.242 33.4997 265.054 33.0394 265.629 32.1187C266.204 31.1865 266.492 29.8746 266.492 28.1829V27.9584C266.227 28.6029 265.796 29.1093 265.197 29.4775C264.611 29.8458 263.943 30.0299 263.195 30.0299C262.458 30.0299 261.802 29.8688 261.227 29.5466C260.652 29.2244 260.203 28.7698 259.881 28.1829C259.558 27.5959 259.397 26.9227 259.397 26.1631C259.397 25.4151 259.564 24.7418 259.898 24.1434C260.232 23.545 260.698 23.0789 261.296 22.7451C261.895 22.4114 262.568 22.2445 263.316 22.2445ZM263.402 28.8388C264.196 28.8388 264.841 28.5914 265.336 28.0965C265.842 27.5902 266.095 26.9399 266.095 26.1459C266.095 25.3403 265.842 24.6901 265.336 24.1952C264.841 23.6888 264.19 23.4356 263.385 23.4356C262.602 23.4356 261.975 23.6831 261.503 24.1779C261.031 24.6728 260.796 25.3288 260.796 26.1459C260.796 26.963 261.031 27.6189 261.503 28.1138C261.987 28.5972 262.62 28.8388 263.402 28.8388ZM270.024 22.3826H278.069V23.4356L272.372 34.5527H270.836L276.515 23.5737H270.024V22.3826Z" fill="black"/>
<path d="M214.207 79.8111H212.498L211.721 83.7987H213.861V84.8172H211.531L210.91 87.959H209.822L210.426 84.8172H207.681L207.077 87.959H205.972L206.594 84.8172H205.058V83.7987H206.784L207.561 79.8111H205.403V78.7926H207.768L208.355 75.7889H209.442L208.855 78.7926H211.6L212.187 75.7889H213.292L212.705 78.7926H214.207V79.8111ZM210.633 83.7987L211.41 79.8111H208.665L207.889 83.7987H210.633ZM222.089 81.7099C222.802 81.9286 223.355 82.3026 223.746 82.832C224.149 83.3614 224.35 83.9944 224.35 84.7309C224.35 85.7781 223.971 86.601 223.211 87.1994C222.451 87.7864 221.375 88.0798 219.983 88.0798C218.59 88.0798 217.514 87.7864 216.755 87.1994C215.995 86.601 215.615 85.7781 215.615 84.7309C215.615 83.9828 215.817 83.3441 216.22 82.8147C216.622 82.2854 217.181 81.9171 217.894 81.7099C217.284 81.4798 216.801 81.1173 216.444 80.6224C216.087 80.1275 215.909 79.5464 215.909 78.8789C215.909 77.8892 216.266 77.1066 216.979 76.5312C217.704 75.9442 218.705 75.6508 219.983 75.6508C221.26 75.6508 222.256 75.9442 222.969 76.5312C223.694 77.1066 224.057 77.8892 224.057 78.8789C224.057 79.5464 223.879 80.1333 223.522 80.6397C223.165 81.1345 222.687 81.4913 222.089 81.7099ZM217.307 78.9825C217.307 79.696 217.532 80.2426 217.98 80.6224C218.441 81.0022 219.108 81.1921 219.983 81.1921C220.858 81.1921 221.519 81.0022 221.968 80.6224C222.428 80.2426 222.659 79.696 222.659 78.9825C222.659 78.3035 222.428 77.7741 221.968 77.3943C221.519 77.0145 220.858 76.8246 219.983 76.8246C219.108 76.8246 218.441 77.0145 217.98 77.3943C217.532 77.7741 217.307 78.3035 217.307 78.9825ZM219.983 86.906C221.962 86.906 222.952 86.1522 222.952 84.6446C222.952 83.137 221.962 82.3832 219.983 82.3832C218.003 82.3832 217.014 83.137 217.014 84.6446C217.014 86.1522 218.003 86.906 219.983 86.906ZM234.459 86.7679V87.959H226.622V86.8887L230.886 82.1933C231.462 81.5488 231.876 80.9734 232.129 80.467C232.394 79.9492 232.526 79.4313 232.526 78.9134C232.526 78.2459 232.33 77.7338 231.939 77.377C231.548 77.0203 230.995 76.8419 230.282 76.8419C229.108 76.8419 227.957 77.308 226.829 78.2402L226.294 77.1526C226.778 76.6923 227.382 76.3298 228.107 76.0651C228.843 75.7889 229.58 75.6508 230.316 75.6508C231.433 75.6508 232.313 75.9385 232.958 76.5139C233.614 77.0893 233.942 77.8661 233.942 78.8444C233.942 79.5464 233.78 80.2196 233.458 80.8641C233.148 81.5085 232.63 82.2278 231.905 83.0219L228.452 86.7679H234.459ZM242.791 81.7099C243.504 81.9286 244.056 82.3026 244.448 82.832C244.851 83.3614 245.052 83.9944 245.052 84.7309C245.052 85.7781 244.672 86.601 243.913 87.1994C243.153 87.7864 242.077 88.0798 240.685 88.0798C239.292 88.0798 238.216 87.7864 237.456 87.1994C236.697 86.601 236.317 85.7781 236.317 84.7309C236.317 83.9828 236.518 83.3441 236.921 82.8147C237.324 82.2854 237.882 81.9171 238.596 81.7099C237.986 81.4798 237.502 81.1173 237.146 80.6224C236.789 80.1275 236.611 79.5464 236.611 78.8789C236.611 77.8892 236.967 77.1066 237.681 76.5312C238.406 75.9442 239.407 75.6508 240.685 75.6508C241.962 75.6508 242.957 75.9442 243.671 76.5312C244.396 77.1066 244.758 77.8892 244.758 78.8789C244.758 79.5464 244.58 80.1333 244.223 80.6397C243.867 81.1345 243.389 81.4913 242.791 81.7099ZM238.009 78.9825C238.009 79.696 238.233 80.2426 238.682 80.6224C239.142 81.0022 239.81 81.1921 240.685 81.1921C241.559 81.1921 242.221 81.0022 242.67 80.6224C243.13 80.2426 243.36 79.696 243.36 78.9825C243.36 78.3035 243.13 77.7741 242.67 77.3943C242.221 77.0145 241.559 76.8246 240.685 76.8246C239.81 76.8246 239.142 77.0145 238.682 77.3943C238.233 77.7741 238.009 78.3035 238.009 78.9825ZM240.685 86.906C242.664 86.906 243.654 86.1522 243.654 84.6446C243.654 83.137 242.664 82.3832 240.685 82.3832C238.705 82.3832 237.715 83.137 237.715 84.6446C237.715 86.1522 238.705 86.906 240.685 86.906ZM247.358 87.959V75.7889H254.885V76.98H248.757V81.1748H254.54V82.3659H248.757V87.959H247.358ZM263.872 81.7099C264.574 81.8941 265.115 82.2393 265.495 82.7457C265.886 83.2521 266.082 83.885 266.082 84.6446C266.082 85.7149 265.731 86.5377 265.029 87.1131C264.327 87.677 263.332 87.959 262.043 87.959H256.967V75.7889H261.853C263.107 75.7889 264.08 76.0651 264.77 76.6175C265.461 77.1699 265.806 77.9525 265.806 78.9652C265.806 79.6212 265.633 80.1851 265.288 80.6569C264.954 81.1288 264.482 81.4798 263.872 81.7099ZM258.366 81.1921H261.646C262.555 81.1921 263.239 81.0079 263.7 80.6397C264.172 80.2714 264.408 79.7363 264.408 79.0342C264.408 77.6532 263.487 76.9627 261.646 76.9627H258.366V81.1921ZM261.904 86.7851C262.86 86.7851 263.562 86.6125 264.011 86.2673C264.471 85.9105 264.701 85.3581 264.701 84.61C264.701 83.114 263.769 82.3659 261.904 82.3659H258.366V86.7851H261.904ZM268.254 75.7889H276.298V76.8419L270.602 87.959H269.065L274.745 76.98H268.254V75.7889Z" fill="black"/>
<path d="M213.128 138.612H211.419L210.642 142.599H212.783V143.618H210.452L209.831 146.76H208.743L209.347 143.618H206.603L205.998 146.76H204.894L205.515 143.618H203.979V142.599H205.705L206.482 138.612H204.324V137.593H206.689L207.276 134.59H208.363L207.776 137.593H210.521L211.108 134.59H212.213L211.626 137.593H213.128V138.612ZM209.555 142.599L210.331 138.612H207.587L206.81 142.599H209.555ZM215.227 146.76V134.59H222.754V135.781H216.625V139.976H222.408V141.167H216.625V146.76H215.227ZM231.741 140.511C232.443 140.695 232.984 141.04 233.364 141.546C233.755 142.053 233.951 142.686 233.951 143.445C233.951 144.516 233.6 145.338 232.898 145.914C232.196 146.478 231.2 146.76 229.911 146.76H224.836V134.59H229.721C230.976 134.59 231.948 134.866 232.639 135.418C233.329 135.971 233.675 136.753 233.675 137.766C233.675 138.422 233.502 138.986 233.157 139.458C232.823 139.93 232.351 140.281 231.741 140.511ZM226.234 139.993H229.514C230.423 139.993 231.108 139.809 231.569 139.44C232.04 139.072 232.276 138.537 232.276 137.835C232.276 136.454 231.356 135.764 229.514 135.764H226.234V139.993ZM229.773 145.586C230.728 145.586 231.43 145.413 231.879 145.068C232.34 144.711 232.57 144.159 232.57 143.411C232.57 141.915 231.638 141.167 229.773 141.167H226.234V145.586H229.773ZM243.373 140.511C244.075 140.695 244.616 141.04 244.996 141.546C245.387 142.053 245.583 142.686 245.583 143.445C245.583 144.516 245.232 145.338 244.53 145.914C243.828 146.478 242.832 146.76 241.543 146.76H236.468V134.59H241.353C242.608 134.59 243.58 134.866 244.271 135.418C244.961 135.971 245.307 136.753 245.307 137.766C245.307 138.422 245.134 138.986 244.789 139.458C244.455 139.93 243.983 140.281 243.373 140.511ZM237.866 139.993H241.146C242.055 139.993 242.74 139.809 243.201 139.44C243.672 139.072 243.908 138.537 243.908 137.835C243.908 136.454 242.988 135.764 241.146 135.764H237.866V139.993ZM241.405 145.586C242.36 145.586 243.062 145.413 243.511 145.068C243.972 144.711 244.202 144.159 244.202 143.411C244.202 141.915 243.27 141.167 241.405 141.167H237.866V145.586H241.405ZM253.296 146.898C252.145 146.898 251.144 146.65 250.293 146.156C249.441 145.649 248.785 144.93 248.325 143.998C247.876 143.054 247.651 141.944 247.651 140.666C247.651 139.389 247.876 138.284 248.325 137.352C248.785 136.419 249.441 135.706 250.293 135.211C251.144 134.705 252.145 134.452 253.296 134.452C254.136 134.452 254.907 134.584 255.609 134.849C256.311 135.102 256.921 135.482 257.439 135.988L256.904 137.075C256.317 136.581 255.742 136.224 255.178 136.005C254.614 135.787 253.992 135.677 253.313 135.677C251.978 135.677 250.943 136.115 250.206 136.989C249.481 137.852 249.119 139.078 249.119 140.666C249.119 142.266 249.481 143.503 250.206 144.378C250.943 145.241 251.978 145.672 253.313 145.672C253.992 145.672 254.614 145.563 255.178 145.344C255.742 145.126 256.317 144.769 256.904 144.274L257.439 145.361C256.921 145.868 256.311 146.253 255.609 146.518C254.907 146.771 254.136 146.898 253.296 146.898ZM263.46 146.898C262.067 146.898 261.008 146.368 260.283 145.31C259.558 144.251 259.196 142.709 259.196 140.683C259.196 138.646 259.558 137.098 260.283 136.04C261.008 134.981 262.067 134.452 263.46 134.452C264.852 134.452 265.911 134.981 266.636 136.04C267.361 137.087 267.724 138.629 267.724 140.666C267.724 142.703 267.361 144.251 266.636 145.31C265.911 146.368 264.852 146.898 263.46 146.898ZM263.46 145.707C264.426 145.707 265.14 145.298 265.6 144.481C266.061 143.664 266.291 142.392 266.291 140.666C266.291 138.928 266.061 137.662 265.6 136.868C265.151 136.063 264.438 135.66 263.46 135.66C262.493 135.66 261.779 136.063 261.319 136.868C260.859 137.674 260.629 138.94 260.629 140.666C260.629 142.392 260.859 143.664 261.319 144.481C261.779 145.298 262.493 145.707 263.46 145.707ZM274.328 139.13C275.099 139.13 275.767 139.291 276.331 139.613C276.906 139.935 277.349 140.39 277.66 140.977C277.971 141.552 278.126 142.22 278.126 142.979C278.126 143.75 277.953 144.429 277.608 145.016C277.274 145.603 276.797 146.064 276.175 146.397C275.554 146.719 274.829 146.881 274 146.881C273.264 146.881 272.533 146.748 271.808 146.484C271.094 146.207 270.49 145.839 269.995 145.379L270.531 144.291C271.658 145.223 272.815 145.689 274 145.689C274.852 145.689 275.519 145.448 276.003 144.964C276.486 144.481 276.728 143.825 276.728 142.997C276.728 142.191 276.486 141.541 276.003 141.046C275.531 140.551 274.898 140.304 274.104 140.304C272.942 140.304 272.015 140.775 271.325 141.719H270.341V134.59H277.643V135.764H271.739V140.096C272.061 139.786 272.441 139.55 272.878 139.389C273.327 139.216 273.81 139.13 274.328 139.13Z" fill="black"/>
<path d="M213.128 194.174H211.419L210.642 198.162H212.783V199.18H210.452L209.831 202.322H208.743L209.347 199.18H206.603L205.998 202.322H204.894L205.515 199.18H203.979V198.162H205.705L206.482 194.174H204.324V193.156H206.689L207.276 190.152H208.363L207.776 193.156H210.521L211.108 190.152H212.213L211.626 193.156H213.128V194.174ZM209.555 198.162L210.331 194.174H207.587L206.81 198.162H209.555ZM220.423 202.46C219.272 202.46 218.271 202.213 217.419 201.718C216.568 201.212 215.912 200.492 215.452 199.56C215.003 198.617 214.778 197.506 214.778 196.229C214.778 194.951 215.003 193.846 215.452 192.914C215.912 191.982 216.568 191.268 217.419 190.774C218.271 190.267 219.272 190.014 220.423 190.014C221.263 190.014 222.034 190.146 222.736 190.411C223.438 190.664 224.048 191.044 224.566 191.55L224.031 192.638C223.444 192.143 222.869 191.786 222.305 191.568C221.741 191.349 221.119 191.24 220.44 191.24C219.105 191.24 218.07 191.677 217.333 192.552C216.608 193.415 216.246 194.64 216.246 196.229C216.246 197.828 216.608 199.065 217.333 199.94C218.07 200.803 219.105 201.235 220.44 201.235C221.119 201.235 221.741 201.125 222.305 200.907C222.869 200.688 223.444 200.331 224.031 199.836L224.566 200.924C224.048 201.43 223.438 201.816 222.736 202.081C222.034 202.334 221.263 202.46 220.423 202.46ZM235.144 198.507V199.681H233.314V202.322H231.916V199.681H226.288V198.611L232.158 190.152H233.314V198.507H235.144ZM227.756 198.507H231.916V192.517L227.756 198.507ZM242.457 202.46C241.306 202.46 240.304 202.213 239.453 201.718C238.601 201.212 237.945 200.492 237.485 199.56C237.036 198.617 236.812 197.506 236.812 196.229C236.812 194.951 237.036 193.846 237.485 192.914C237.945 191.982 238.601 191.268 239.453 190.774C240.304 190.267 241.306 190.014 242.457 190.014C243.297 190.014 244.068 190.146 244.77 190.411C245.472 190.664 246.082 191.044 246.6 191.55L246.064 192.638C245.477 192.143 244.902 191.786 244.338 191.568C243.774 191.349 243.153 191.24 242.474 191.24C241.139 191.24 240.103 191.677 239.367 192.552C238.642 193.415 238.279 194.64 238.279 196.229C238.279 197.828 238.642 199.065 239.367 199.94C240.103 200.803 241.139 201.235 242.474 201.235C243.153 201.235 243.774 201.125 244.338 200.907C244.902 200.688 245.477 200.331 246.064 199.836L246.6 200.924C246.082 201.43 245.472 201.816 244.77 202.081C244.068 202.334 243.297 202.46 242.457 202.46ZM257.177 198.507V199.681H255.347V202.322H253.949V199.681H248.322V198.611L254.191 190.152H255.347V198.507H257.177ZM249.789 198.507H253.949V192.517L249.789 198.507ZM264.49 202.46C263.339 202.46 262.338 202.213 261.486 201.718C260.635 201.212 259.979 200.492 259.518 199.56C259.069 198.617 258.845 197.506 258.845 196.229C258.845 194.951 259.069 193.846 259.518 192.914C259.979 191.982 260.635 191.268 261.486 190.774C262.338 190.267 263.339 190.014 264.49 190.014C265.33 190.014 266.101 190.146 266.803 190.411C267.505 190.664 268.115 191.044 268.633 191.55L268.098 192.638C267.511 192.143 266.935 191.786 266.372 191.568C265.808 191.349 265.186 191.24 264.507 191.24C263.172 191.24 262.136 191.677 261.4 192.552C260.675 193.415 260.312 194.64 260.312 196.229C260.312 197.828 260.675 199.065 261.4 199.94C262.136 200.803 263.172 201.235 264.507 201.235C265.186 201.235 265.808 201.125 266.372 200.907C266.935 200.688 267.511 200.331 268.098 199.836L268.633 200.924C268.115 201.43 267.505 201.816 266.803 202.081C266.101 202.334 265.33 202.46 264.49 202.46ZM279.211 198.507V199.681H277.381V202.322H275.983V199.681H270.355V198.611L276.224 190.152H277.381V198.507H279.211ZM271.822 198.507H275.983V192.517L271.822 198.507Z" fill="black"/>
<path d="M213.128 255.672H211.419L210.642 259.66H212.783V260.679H210.452L209.831 263.82H208.743L209.347 260.679H206.603L205.998 263.82H204.894L205.515 260.679H203.979V259.66H205.705L206.482 255.672H204.324V254.654H206.689L207.276 251.65H208.363L207.776 254.654H210.521L211.108 251.65H212.213L211.626 254.654H213.128V255.672ZM209.555 259.66L210.331 255.672H207.587L206.81 259.66H209.555ZM220.061 262.629H222.736V263.82H215.969V262.629H218.645V253.411L216.505 254.757L215.849 253.67L219.042 251.65H220.061V262.629ZM225.578 263.82V251.65H233.104V252.841H226.976V257.036H232.759V258.227H226.976V263.82H225.578ZM240.02 262.629H242.696V263.82H235.929V262.629H238.605V253.411L236.464 254.757L235.808 253.67L239.002 251.65H240.02V262.629ZM245.538 263.82V251.65H253.064V252.841H246.936V257.036H252.719V258.227H246.936V263.82H245.538ZM259.98 262.629H262.656V263.82H255.889V262.629H258.565V253.411L256.424 254.757L255.768 253.67L258.962 251.65H259.98V262.629ZM265.498 263.82V251.65H273.024V252.841H266.896V257.036H272.679V258.227H266.896V263.82H265.498ZM287.999 263.82L286.583 262.284C286.088 262.825 285.53 263.239 284.909 263.527C284.287 263.803 283.608 263.941 282.872 263.941C282.1 263.941 281.416 263.809 280.817 263.544C280.23 263.279 279.77 262.905 279.436 262.422C279.114 261.939 278.953 261.386 278.953 260.765C278.953 260.028 279.172 259.372 279.609 258.797C280.058 258.21 280.777 257.617 281.767 257.019C281.237 256.409 280.869 255.897 280.662 255.482C280.455 255.068 280.351 254.637 280.351 254.188C280.351 253.382 280.622 252.738 281.163 252.254C281.715 251.771 282.44 251.529 283.338 251.529C284.178 251.529 284.839 251.754 285.323 252.203C285.818 252.64 286.065 253.233 286.065 253.981C286.065 254.579 285.887 255.12 285.53 255.603C285.173 256.075 284.535 256.605 283.614 257.191L286.497 260.351C287.015 259.326 287.291 258.101 287.325 256.674H288.551C288.505 258.48 288.102 260.011 287.343 261.265L289.673 263.82H287.999ZM283.355 252.6C282.849 252.6 282.44 252.744 282.129 253.031C281.83 253.319 281.68 253.704 281.68 254.188C281.68 254.522 281.761 254.844 281.922 255.155C282.083 255.454 282.394 255.862 282.854 256.38C283.614 255.908 284.132 255.5 284.408 255.155C284.696 254.809 284.839 254.441 284.839 254.05C284.839 253.612 284.701 253.261 284.425 252.997C284.16 252.732 283.804 252.6 283.355 252.6ZM282.906 262.802C283.481 262.802 284.017 262.687 284.511 262.457C285.006 262.215 285.438 261.875 285.806 261.438L282.526 257.847C281.721 258.342 281.151 258.808 280.817 259.246C280.495 259.683 280.334 260.178 280.334 260.73C280.334 261.363 280.564 261.87 281.024 262.249C281.496 262.618 282.123 262.802 282.906 262.802ZM303.723 255.672H302.014L301.237 259.66H303.377V260.679H301.047L300.425 263.82H299.338L299.942 260.679H297.197L296.593 263.82H295.488L296.11 260.679H294.573V259.66H296.3L297.076 255.672H294.919V254.654H297.284L297.871 251.65H298.958L298.371 254.654H301.116L301.703 251.65H302.808L302.221 254.654H303.723V255.672ZM300.149 259.66L300.926 255.672H298.181L297.404 259.66H300.149ZM305.822 263.82V251.65H313.348V252.841H307.22V257.036H313.003V258.227H307.22V263.82H305.822ZM323.673 263.82L322.327 260.696H315.974L314.628 263.82H313.178L318.529 251.65H319.755L325.106 263.82H323.673ZM316.475 259.522H321.826L319.151 253.29L316.475 259.522ZM326.911 263.82V251.65H334.438V252.841H328.309V257.036H334.092V258.227H328.309V263.82H326.911ZM344.763 263.82L343.416 260.696H337.064L335.717 263.82H334.267L339.618 251.65H340.844L346.195 263.82H344.763ZM337.564 259.522H342.916L340.24 253.29L337.564 259.522ZM348 263.82V251.65H355.527V252.841H349.399V257.036H355.182V258.227H349.399V263.82H348ZM365.852 263.82L364.505 260.696H358.153L356.806 263.82H355.356L360.708 251.65H361.933L367.285 263.82H365.852ZM358.653 259.522H364.005L361.329 253.29L358.653 259.522Z" fill="black"/>
<path d="M20.4993 49.9986C31.8207 49.9986 40.9986 40.8207 40.9986 29.4993C40.9986 18.1778 31.8207 9 20.4993 9C9.17784 9 0 18.1778 0 29.4993C0 40.8207 9.17784 49.9986 20.4993 49.9986Z" fill="#BCE097"/>
<path d="M85.7732 49.9986C97.0946 49.9986 106.272 40.8207 106.272 29.4993C106.272 18.1778 97.0946 9 85.7732 9C74.4518 9 65.2739 18.1778 65.2739 29.4993C65.2739 40.8207 74.4518 49.9986 85.7732 49.9986Z" fill="#BCE097" fill-opacity="0.6"/>
<path d="M150.508 49.9986C161.829 49.9986 171.007 40.8207 171.007 29.4993C171.007 18.1778 161.829 9 150.508 9C139.186 9 130.009 18.1778 130.009 29.4993C130.009 40.8207 139.186 49.9986 150.508 49.9986Z" fill="#BCE097" fill-opacity="0.3"/>
<path d="M20.4993 218.309C31.8207 218.309 40.9986 209.131 40.9986 197.81C40.9986 186.488 31.8207 177.311 20.4993 177.311C9.17784 177.311 0 186.488 0 197.81C0 209.131 9.17784 218.309 20.4993 218.309Z" fill="#C4C4C4"/>
<path d="M85.7732 279.807C97.0946 279.807 106.272 270.629 106.272 259.308C106.272 247.986 97.0946 238.809 85.7732 238.809C74.4518 238.809 65.2739 247.986 65.2739 259.308C65.2739 270.629 74.4518 279.807 85.7732 279.807Z" fill="#FAFAFA"/>
<path d="M20.4993 279.807C31.8207 279.807 40.9986 270.629 40.9986 259.308C40.9986 247.986 31.8207 238.809 20.4993 238.809C9.17784 238.809 0 247.986 0 259.308C0 270.629 9.17784 279.807 20.4993 279.807Z" fill="#1F1F1F"/>
<path d="M85.7732 218.309C97.0946 218.309 106.272 209.131 106.272 197.81C106.272 186.488 97.0946 177.311 85.7732 177.311C74.4518 177.311 65.2739 186.488 65.2739 197.81C65.2739 209.131 74.4518 218.309 85.7732 218.309Z" fill="#C4C4C4" fill-opacity="0.6"/>
<path d="M151.047 218.309C162.369 218.309 171.547 209.131 171.547 197.81C171.547 186.488 162.369 177.311 151.047 177.311C139.726 177.311 130.548 186.488 130.548 197.81C130.548 209.131 139.726 218.309 151.047 218.309Z" fill="#C4C4C4" fill-opacity="0.3"/>
<path d="M20.4993 106.641C31.8207 106.641 40.9986 97.4633 40.9986 86.1419C40.9986 74.8204 31.8207 65.6426 20.4993 65.6426C9.17784 65.6426 0 74.8204 0 86.1419C0 97.4633 9.17784 106.641 20.4993 106.641Z" fill="#828FB7"/>
<path d="M85.7732 106.641C97.0946 106.641 106.272 97.4633 106.272 86.1419C106.272 74.8204 97.0946 65.6426 85.7732 65.6426C74.4518 65.6426 65.2739 74.8204 65.2739 86.1419C65.2739 97.4633 74.4518 106.641 85.7732 106.641Z" fill="#828FB7" fill-opacity="0.6"/>
<path d="M151.047 106.641C162.369 106.641 171.547 97.4633 171.547 86.1419C171.547 74.8204 162.369 65.6426 151.047 65.6426C139.726 65.6426 130.548 74.8204 130.548 86.1419C130.548 97.4633 139.726 106.641 151.047 106.641Z" fill="#828FB7" fill-opacity="0.3"/>
<path d="M20.4993 161.667C31.8207 161.667 40.9986 152.489 40.9986 141.167C40.9986 129.846 31.8207 120.668 20.4993 120.668C9.17784 120.668 0 129.846 0 141.167C0 152.489 9.17784 161.667 20.4993 161.667Z" fill="#FBBC05"/>
<path d="M85.7732 161.667C97.0946 161.667 106.272 152.489 106.272 141.167C106.272 129.846 97.0946 120.668 85.7732 120.668C74.4518 120.668 65.2739 129.846 65.2739 141.167C65.2739 152.489 74.4518 161.667 85.7732 161.667Z" fill="#FBBC05" fill-opacity="0.6"/>
<path d="M151.047 161.667C162.369 161.667 171.547 152.489 171.547 141.167C171.547 129.846 162.369 120.668 151.047 120.668C139.726 120.668 130.548 129.846 130.548 141.167C130.548 152.489 139.726 161.667 151.047 161.667Z" fill="#FBBC05" fill-opacity="0.3"/>
</g>
<defs>
<filter id="filter0_i_272_8465" x="0" y="9" width="367.285" height="272.964" filterUnits="userSpaceOnUse" color-interpolation-filters="sRGB">
<feFlood flood-opacity="0" result="BackgroundImageFix"/>
<feBlend mode="normal" in="SourceGraphic" in2="BackgroundImageFix" result="shape"/>
<feColorMatrix in="SourceAlpha" type="matrix" values="0 0 0 0 0 0 0 0 0 0 0 0 0 0 0 0 0 0 127 0" result="hardAlpha"/>
<feOffset dy="2.15782"/>
<feGaussianBlur stdDeviation="1.07891"/>
<feComposite in2="hardAlpha" operator="arithmetic" k2="-1" k3="1"/>
<feColorMatrix type="matrix" values="0 0 0 0 0 0 0 0 0 0 0 0 0 0 0 0 0 0 0.25 0"/>
<feBlend mode="normal" in2="shape" result="effect1_innerShadow_272_8465"/>
</filter>
</defs>
</svg>
