<svg width="32" height="22" viewBox="0 0 32 22" fill="none" xmlns="http://www.w3.org/2000/svg">
<path fill-rule="evenodd" clip-rule="evenodd" d="M0.294922 0L8.86287 20.0707C9.62344 21.8524 12.149 21.8524 12.9096 20.0707L15.9952 12.8426L19.0808 20.0707C19.8413 21.8524 22.3669 21.8524 23.1275 20.0707L31.6954 0H29.5208L22.1914 17.1693L21.9923 17.6359L21.3701 19.0935L21.2881 19.2855C21.2189 19.4475 20.9893 19.4475 20.9202 19.2855L20.8382 19.0935L20.216 17.6359L20.0168 17.1693L17.0825 10.2955L21.4775 0H19.3029L15.9952 7.74849L12.6874 0H10.5128L14.9079 10.2955L11.9735 17.1693L11.7744 17.6359L11.1521 19.0934L11.0702 19.2855C11.001 19.4475 10.7714 19.4475 10.7023 19.2855L10.6203 19.0934L9.99809 17.6359L9.79892 17.1693L2.46953 0H0.294922Z" fill="black"/>
</svg>
