<svg width="210" height="24" viewBox="0 0 210 24" fill="none" xmlns="http://www.w3.org/2000/svg">
<path d="M62.304 0.259999L54.548 10.676V20H52.252V10.648L44.496 0.259999H47.156L53.428 8.772L59.7 0.259999H62.304ZM63.9164 20V6.364H66.1844V20H63.9164ZM63.6924 0.456H66.4364V3.004H63.6924V0.456ZM88.9322 6.364H91.2002L86.1322 20H83.9482L80.1122 9.444L76.2482 20H74.0922L69.0242 6.364H71.3762L75.2402 17.312L79.1882 6.364H81.1482L85.0402 17.312L88.9322 6.364ZM105.254 13.532H95.2865C95.3611 15.1187 95.7905 16.3227 96.5745 17.144C97.3585 17.9467 98.4691 18.348 99.9065 18.348C101.493 18.348 102.949 17.8067 104.274 16.724L105.03 18.376C104.433 18.936 103.668 19.384 102.734 19.72C101.801 20.0373 100.849 20.196 99.8785 20.196C97.7505 20.196 96.0705 19.5707 94.8385 18.32C93.6251 17.0693 93.0185 15.3427 93.0185 13.14C93.0185 11.74 93.2891 10.508 93.8305 9.444C94.3718 8.36133 95.1278 7.52133 96.0985 6.924C97.0878 6.32667 98.2078 6.028 99.4585 6.028C101.269 6.028 102.688 6.62533 103.714 7.82C104.741 8.996 105.254 10.62 105.254 12.692V13.532ZM99.4865 7.792C98.2918 7.792 97.3305 8.16533 96.6025 8.912C95.8931 9.65867 95.4731 10.7133 95.3425 12.076H103.266C103.229 10.6947 102.884 9.64 102.23 8.912C101.577 8.16533 100.662 7.792 99.4865 7.792ZM108.596 20V6.364H110.864V20H108.596ZM108.372 0.456H111.116V3.004H108.372V0.456ZM147.859 0.259999H150.099L143.211 20H141.251L135.623 3.844L129.995 20H128.063L121.147 0.259999H123.471L129.071 16.752L134.811 0.259999L136.547 0.287998L142.203 16.78L147.859 0.259999ZM163.225 6.364V20H161.013V17.676C160.583 18.4973 159.977 19.1227 159.193 19.552C158.427 19.9813 157.559 20.196 156.589 20.196C154.965 20.196 153.742 19.748 152.921 18.852C152.099 17.9373 151.689 16.5933 151.689 14.82V6.364H153.957V14.764C153.957 15.9773 154.199 16.8733 154.685 17.452C155.17 18.012 155.935 18.292 156.981 18.292C158.175 18.292 159.137 17.9093 159.865 17.144C160.593 16.36 160.957 15.3333 160.957 14.064V6.364H163.225Z" fill="black"/>
<path fill-rule="evenodd" clip-rule="evenodd" d="M0.651855 0L8.66662 18.7749C9.42719 20.5565 11.9527 20.5566 12.7133 18.7749L15.463 12.3337L18.2126 18.7749C18.9732 20.5565 21.4988 20.5566 22.2593 18.7749L30.2741 0H28.0995L21.3233 15.8735L21.1241 16.3401L20.5019 17.7976L20.4199 17.9896C20.3508 18.1516 20.1212 18.1516 20.0521 17.9896L19.9701 17.7976L19.3479 16.34L19.1487 15.8735L16.5503 9.78664L20.7281 0H18.5535L15.463 7.23959L12.3725 0H10.1979L14.3757 9.78664L11.7773 15.8735L11.5781 16.34L10.9559 17.7976L10.8739 17.9896C10.8048 18.1516 10.5752 18.1516 10.506 17.9896L10.4241 17.7976L9.80184 16.34L9.60267 15.8735L2.82647 0H0.651855Z" fill="url(#paint0_angular_272_319)"/>
<defs>
<radialGradient id="paint0_angular_272_319" cx="0" cy="0" r="1" gradientUnits="userSpaceOnUse" gradientTransform="translate(22.8 -3.55948) rotate(112.075) scale(35.2096 44.0954)">
<stop/>
<stop offset="1"/>
</radialGradient>
</defs>
</svg>
